ffmpeg started on 2025-03-25 at 15:10:29
Report written to "D:\Convert\FFMetrics\reports\vmaf_report-6.txt"
Log level: 32
Command line:
ffmpeg -hide_banner -nostdin -r 24000/1001 -i "G:\\\xc0\xed\xe8\xec\xe5\\\xce\xed\xe3\xee\xe8\xed\xe3\xe8\\!_35_\xcb\xe5\xf2\xee_2024\\DreamCast\\\xc0\xeb\xff \xe8\xed\xee\xe3\xe4\xe0 \xea\xee\xea\xe5\xf2\xed\xe8\xf7\xe0\xe5\xf2 \xf1\xee \xec\xed\xee\xe9 \xef\xee-\xf0\xf3\xf1\xf1\xea\xe8\\[DC] Roshidere - 04_Telegram_HEVC.mkv" -r 24000/1001 -i "G:\\\xc0\xed\xe8\xec\xe5\\\xce\xed\xe3\xee\xe8\xed\xe3\xe8\\!_35_\xcb\xe5\xf2\xee_2024\\DreamCast\\\xc0\xeb\xff \xe8\xed\xee\xe3\xe4\xe0 \xea\xee\xea\xe5\xf2\xed\xe8\xf7\xe0\xe5\xf2 \xf1\xee \xec\xed\xee\xe9 \xef\xee-\xf0\xf3\xf1\xf1\xea\xe8\\[DC] Roshidere - 04_Telegram.mp4" -lavfi "[0:v]settb=AVTB,setpts=PTS-STARTPTS,format=pix_fmts=yuv420p10,fps=24000/1001,scale=1920:1080:flags=bicubic[main];[1:v]settb=AVTB,setpts=PTS-STARTPTS,format=pix_fmts=yuv420p,fps=24000/1001,scale=1920:1080:flags=bicubic[ref];[main][ref]libvmaf=eof_action=endall:log_path='D\\:/Convert/FFMetrics/logs/vmaf_logfile-6.txt':n_threads=32:pool=Mean:model=version=vmaf_v0.6.1" -f null -
Input #0, matroska,webm, from 'G:\Аниме\Онгоинги\!_35_Лето_2024\DreamCast\Аля иногда кокетничает со мной по-русски\[DC] Roshidere - 04_Telegram_HEVC.mkv':
  Metadata:
    COMPATIBLE_BRANDS: isomiso2avc1mp41
    MAJOR_BRAND     : isom
    MINOR_VERSION   : 512
    ENCODER         : Lavf61.7.100
  Duration: 00:24:16.68, start: -0.021000, bitrate: 969 kb/s
  Stream #0:0: Video: hevc (Main 10), yuv420p10le(tv, bt709, progressive), 1920x1080 [SAR 1:1 DAR 16:9], 23.98 fps, 23.98 tbr, 1k tbn (default)
      Metadata:
        HANDLER_NAME    : VideoHandler
        VENDOR_ID       : [0][0][0][0]
        ENCODER         : Lavc61.19.100 libx265
        BPS             : 772154
        DURATION        : 00:24:16.496708333
        NUMBER_OF_FRAMES: 34921
        NUMBER_OF_BYTES : 140580034
        _STATISTICS_WRITING_APP: mkvpropedit v66.0.0 ('Josie') 64-bit
        _STATISTICS_WRITING_DATE_UTC: 2025-03-21 10:12:32
        _STATISTICS_TAGS: BPS DURATION NUMBER_OF_FRAMES NUMBER_OF_BYTES
  Stream #0:1: Audio: aac (LC), 48000 Hz, stereo, fltp (default)
      Metadata:
        HANDLER_NAME    : SoundHandler
        VENDOR_ID       : [0][0][0][0]
        ENCODER         : Lavc61.19.100 aac
        BPS             : 193178
        DURATION        : 00:24:16.682000000
        NUMBER_OF_FRAMES: 68283
        NUMBER_OF_BYTES : 35174919
        _STATISTICS_WRITING_APP: mkvpropedit v66.0.0 ('Josie') 64-bit
        _STATISTICS_WRITING_DATE_UTC: 2025-03-21 10:12:32
        _STATISTICS_TAGS: BPS DURATION NUMBER_OF_FRAMES NUMBER_OF_BYTES
Input #1, mov,mp4,m4a,3gp,3g2,mj2, from 'G:\Аниме\Онгоинги\!_35_Лето_2024\DreamCast\Аля иногда кокетничает со мной по-русски\[DC] Roshidere - 04_Telegram.mp4':
  Metadata:
    major_brand     : isom
    minor_version   : 512
    compatible_brands: isomiso2avc1mp41
    encoder         : Lavf61.1.100
  Duration: 00:24:16.65, start: 0.000000, bitrate: 3702 kb/s
  Stream #1:0[0x1](und): Video: h264 (High) (avc1 / 0x31637661), yuv420p(tv, bt709, progressive), 1920x1080 [SAR 1:1 DAR 16:9], 3554 kb/s, 23.98 fps, 23.98 tbr, 24k tbn (default)
      Metadata:
        handler_name    : VideoHandler
        vendor_id       : [0][0][0][0]
        encoder         : Lavc61.3.100 h264_qsv
  Stream #1:1[0x2](und): Audio: aac (HE-AACv2) (mp4a / 0x6134706D), 48000 Hz, stereo, fltp, 144 kb/s (default)
      Metadata:
        handler_name    : SoundHandler
        vendor_id       : [0][0][0][0]
Stream mapping:
  Stream #0:0 (hevc) -> settb:default
  Stream #1:0 (h264) -> settb:default
  libvmaf:default -> Stream #0:0 (wrapped_avframe)
  Stream #0:1 -> #0:1 (aac (native) -> pcm_s16le (native))
Output #0, null, to 'pipe:':
  Metadata:
    COMPATIBLE_BRANDS: isomiso2avc1mp41
    MAJOR_BRAND     : isom
    MINOR_VERSION   : 512
    encoder         : Lavf61.7.100
  Stream #0:0: Video: wrapped_avframe, yuv420p10le(tv, bt709, progressive), 1920x1080 [SAR 1:1 DAR 16:9], q=2-31, 200 kb/s, 23.98 fps, 23.98 tbn
      Metadata:
        encoder         : Lavc61.19.100 wrapped_avframe
  Stream #0:1: Audio: pcm_s16le, 48000 Hz, stereo, s16, 1536 kb/s (default)
      Metadata:
        HANDLER_NAME    : SoundHandler
        VENDOR_ID       : [0][0][0][0]
        _STATISTICS_TAGS: BPS DURATION NUMBER_OF_FRAMES NUMBER_OF_BYTES
        BPS             : 193178
        DURATION        : 00:24:16.682000000
        NUMBER_OF_FRAMES: 68283
        NUMBER_OF_BYTES : 35174919
        _STATISTICS_WRITING_APP: mkvpropedit v66.0.0 ('Josie') 64-bit
        _STATISTICS_WRITING_DATE_UTC: 2025-03-21 10:12:32
        encoder         : Lavc61.19.100 pcm_s16le
frame=   38 fps=0.0 q=-0.0 size=N/A time=00:00:01.58 bitrate=N/A speed= 3.1x    frame=   83 fps= 81 q=-0.0 size=N/A time=00:00:03.46 bitrate=N/A speed=3.39x    frame=  130 fps= 84 q=-0.0 size=N/A time=00:00:05.42 bitrate=N/A speed= 3.5x    frame=  177 fps= 86 q=-0.0 size=N/A time=00:00:07.38 bitrate=N/A speed=3.59x    frame=  223 fps= 86 q=-0.0 size=N/A time=00:00:09.30 bitrate=N/A speed= 3.6x    frame=  268 fps= 87 q=-0.0 size=N/A time=00:00:11.17 bitrate=N/A speed=3.61x    frame=  313 fps= 87 q=-0.0 size=N/A time=00:00:13.05 bitrate=N/A speed=3.63x    frame=  361 fps= 87 q=-0.0 size=N/A time=00:00:15.05 bitrate=N/A speed=3.65x    frame=  404 fps= 87 q=-0.0 size=N/A time=00:00:16.85 bitrate=N/A speed=3.64x    frame=  452 fps= 88 q=-0.0 size=N/A time=00:00:18.85 bitrate=N/A speed=3.65x    frame=  496 fps= 88 q=-0.0 size=N/A time=00:00:20.68 bitrate=N/A speed=3.65x    frame=  542 fps= 88 q=-0.0 size=N/A time=00:00:22.60 bitrate=N/A speed=3.66x    frame=  588 fps= 88 q=-0.0 size=N/A time=00:00:24.52 bitrate=N/A speed=3.66x    frame=  636 fps= 88 q=-0.0 size=N/A time=00:00:26.52 bitrate=N/A speed=3.68x    frame=  681 fps= 88 q=-0.0 size=N/A time=00:00:28.40 bitrate=N/A speed=3.68x    frame=  728 fps= 88 q=-0.0 size=N/A time=00:00:30.36 bitrate=N/A speed=3.68x    frame=  774 fps= 88 q=-0.0 size=N/A time=00:00:32.28 bitrate=N/A speed=3.69x    frame=  819 fps= 88 q=-0.0 size=N/A time=00:00:34.15 bitrate=N/A speed=3.68x    frame=  865 fps= 88 q=-0.0 size=N/A time=00:00:36.07 bitrate=N/A speed=3.68x    frame=  910 fps= 88 q=-0.0 size=N/A time=00:00:37.95 bitrate=N/A speed=3.68x    frame=  955 fps= 88 q=-0.0 size=N/A time=00:00:39.83 bitrate=N/A speed=3.68x    frame=  999 fps= 88 q=-0.0 size=N/A time=00:00:41.66 bitrate=N/A speed=3.67x    frame= 1043 fps= 88 q=-0.0 size=N/A time=00:00:43.50 bitrate=N/A speed=3.67x    frame= 1090 fps= 88 q=-0.0 size=N/A time=00:00:45.46 bitrate=N/A speed=3.67x    frame= 1133 fps= 88 q=-0.0 size=N/A time=00:00:47.25 bitrate=N/A speed=3.67x    frame= 1177 fps= 88 q=-0.0 size=N/A time=00:00:49.09 bitrate=N/A speed=3.66x    frame= 1221 fps= 88 q=-0.0 size=N/A time=00:00:50.92 bitrate=N/A speed=3.66x    frame= 1267 fps= 88 q=-0.0 size=N/A time=00:00:52.84 bitrate=N/A speed=3.66x    frame= 1315 fps= 88 q=-0.0 size=N/A time=00:00:54.84 bitrate=N/A speed=3.67x    frame= 1358 fps= 88 q=-0.0 size=N/A time=00:00:56.63 bitrate=N/A speed=3.66x    frame= 1402 fps= 88 q=-0.0 size=N/A time=00:00:58.47 bitrate=N/A speed=3.66x    frame= 1445 fps= 88 q=-0.0 size=N/A time=00:01:00.26 bitrate=N/A speed=3.65x    frame= 1488 fps= 87 q=-0.0 size=N/A time=00:01:02.06 bitrate=N/A speed=3.65x    frame= 1534 fps= 87 q=-0.0 size=N/A time=00:01:03.98 bitrate=N/A speed=3.65x    frame= 1577 fps= 87 q=-0.0 size=N/A time=00:01:05.77 bitrate=N/A speed=3.65x    frame= 1620 fps= 87 q=-0.0 size=N/A time=00:01:07.56 bitrate=N/A speed=3.64x    frame= 1666 fps= 87 q=-0.0 size=N/A time=00:01:09.48 bitrate=N/A speed=3.64x    frame= 1708 fps= 87 q=-0.0 size=N/A time=00:01:11.23 bitrate=N/A speed=3.64x    frame= 1752 fps= 87 q=-0.0 size=N/A time=00:01:13.07 bitrate=N/A speed=3.64x    frame= 1795 fps= 87 q=-0.0 size=N/A time=00:01:14.86 bitrate=N/A speed=3.63x    frame= 1838 fps= 87 q=-0.0 size=N/A time=00:01:16.65 bitrate=N/A speed=3.63x    frame= 1882 fps= 87 q=-0.0 size=N/A time=00:01:18.49 bitrate=N/A speed=3.63x    frame= 1927 fps= 87 q=-0.0 size=N/A time=00:01:20.37 bitrate=N/A speed=3.62x    frame= 1972 fps= 87 q=-0.0 size=N/A time=00:01:22.24 bitrate=N/A speed=3.62x    frame= 2017 fps= 87 q=-0.0 size=N/A time=00:01:24.12 bitrate=N/A speed=3.62x    frame= 2061 fps= 87 q=-0.0 size=N/A time=00:01:25.96 bitrate=N/A speed=3.62x    frame= 2106 fps= 87 q=-0.0 size=N/A time=00:01:27.83 bitrate=N/A speed=3.62x    frame= 2150 fps= 87 q=-0.0 size=N/A time=00:01:29.67 bitrate=N/A speed=3.62x    frame= 2196 fps= 87 q=-0.0 size=N/A time=00:01:31.59 bitrate=N/A speed=3.62x    frame= 2240 fps= 87 q=-0.0 size=N/A time=00:01:33.42 bitrate=N/A speed=3.62x    frame= 2283 fps= 87 q=-0.0 size=N/A time=00:01:35.22 bitrate=N/A speed=3.62x    frame= 2328 fps= 87 q=-0.0 size=N/A time=00:01:37.09 bitrate=N/A speed=3.62x    frame= 2371 fps= 87 q=-0.0 size=N/A time=00:01:38.89 bitrate=N/A speed=3.62x    frame= 2416 fps= 87 q=-0.0 size=N/A time=00:01:40.76 bitrate=N/A speed=3.62x    frame= 2457 fps= 87 q=-0.0 size=N/A time=00:01:42.47 bitrate=N/A speed=3.61x    frame= 2500 fps= 87 q=-0.0 size=N/A time=00:01:44.27 bitrate=N/A speed=3.61x    frame= 2541 fps= 86 q=-0.0 size=N/A time=00:01:45.98 bitrate=N/A speed= 3.6x    frame= 2583 fps= 86 q=-0.0 size=N/A time=00:01:47.73 bitrate=N/A speed= 3.6x    frame= 2627 fps= 86 q=-0.0 size=N/A time=00:01:49.56 bitrate=N/A speed= 3.6x    frame= 2668 fps= 86 q=-0.0 size=N/A time=00:01:51.27 bitrate=N/A speed= 3.6x    frame= 2715 fps= 86 q=-0.0 size=N/A time=00:01:53.23 bitrate=N/A speed= 3.6x    frame= 2759 fps= 86 q=-0.0 size=N/A time=00:01:55.07 bitrate=N/A speed= 3.6x    frame= 2805 fps= 86 q=-0.0 size=N/A time=00:01:56.99 bitrate=N/A speed= 3.6x    frame= 2849 fps= 86 q=-0.0 size=N/A time=00:01:58.82 bitrate=N/A speed= 3.6x    frame= 2894 fps= 86 q=-0.0 size=N/A time=00:02:00.70 bitrate=N/A speed= 3.6x    frame= 2940 fps= 86 q=-0.0 size=N/A time=00:02:02.62 bitrate=N/A speed= 3.6x    frame= 2986 fps= 86 q=-0.0 size=N/A time=00:02:04.54 bitrate=N/A speed= 3.6x    frame= 3030 fps= 86 q=-0.0 size=N/A time=00:02:06.37 bitrate=N/A speed= 3.6x    frame= 3076 fps= 86 q=-0.0 size=N/A time=00:02:08.29 bitrate=N/A speed= 3.6x    frame= 3121 fps= 86 q=-0.0 size=N/A time=00:02:10.17 bitrate=N/A speed=3.61x    frame= 3167 fps= 86 q=-0.0 size=N/A time=00:02:12.09 bitrate=N/A speed=3.61x    frame= 3212 fps= 86 q=-0.0 size=N/A time=00:02:13.96 bitrate=N/A speed=3.61x    frame= 3257 fps= 87 q=-0.0 size=N/A time=00:02:15.84 bitrate=N/A speed=3.61x    frame= 3302 fps= 87 q=-0.0 size=N/A time=00:02:17.72 bitrate=N/A speed=3.61x    frame= 3346 fps= 87 q=-0.0 size=N/A time=00:02:19.55 bitrate=N/A speed=3.61x    frame= 3392 fps= 87 q=-0.0 size=N/A time=00:02:21.47 bitrate=N/A speed=3.61x    frame= 3435 fps= 86 q=-0.0 size=N/A time=00:02:23.26 bitrate=N/A speed=3.61x    frame= 3481 fps= 87 q=-0.0 size=N/A time=00:02:25.18 bitrate=N/A speed=3.61x    frame= 3526 fps= 87 q=-0.0 size=N/A time=00:02:27.06 bitrate=N/A speed=3.61x    frame= 3570 fps= 87 q=-0.0 size=N/A time=00:02:28.89 bitrate=N/A speed=3.61x    frame= 3615 fps= 87 q=-0.0 size=N/A time=00:02:30.77 bitrate=N/A speed=3.61x    frame= 3661 fps= 87 q=-0.0 size=N/A time=00:02:32.69 bitrate=N/A speed=3.61x    frame= 3705 fps= 87 q=-0.0 size=N/A time=00:02:34.52 bitrate=N/A speed=3.61x    frame= 3750 fps= 87 q=-0.0 size=N/A time=00:02:36.40 bitrate=N/A speed=3.61x    frame= 3793 fps= 87 q=-0.0 size=N/A time=00:02:38.19 bitrate=N/A speed=3.61x    frame= 3836 fps= 86 q=-0.0 size=N/A time=00:02:39.99 bitrate=N/A speed=3.61x    frame= 3879 fps= 86 q=-0.0 size=N/A time=00:02:41.78 bitrate=N/A speed=3.61x    frame= 3923 fps= 86 q=-0.0 size=N/A time=00:02:43.62 bitrate=N/A speed=3.61x    frame= 3967 fps= 86 q=-0.0 size=N/A time=00:02:45.45 bitrate=N/A speed= 3.6x    frame= 4009 fps= 86 q=-0.0 size=N/A time=00:02:47.20 bitrate=N/A speed= 3.6x    frame= 4055 fps= 86 q=-0.0 size=N/A time=00:02:49.12 bitrate=N/A speed= 3.6x    frame= 4100 fps= 86 q=-0.0 size=N/A time=00:02:51.00 bitrate=N/A speed= 3.6x    frame= 4144 fps= 86 q=-0.0 size=N/A time=00:02:52.83 bitrate=N/A speed= 3.6x    frame= 4188 fps= 86 q=-0.0 size=N/A time=00:02:54.67 bitrate=N/A speed= 3.6x    frame= 4232 fps= 86 q=-0.0 size=N/A time=00:02:56.50 bitrate=N/A speed= 3.6x    frame= 4274 fps= 86 q=-0.0 size=N/A time=00:02:58.26 bitrate=N/A speed= 3.6x    frame= 4318 fps= 86 q=-0.0 size=N/A time=00:03:00.09 bitrate=N/A speed= 3.6x    frame= 4366 fps= 86 q=-0.0 size=N/A time=00:03:02.09 bitrate=N/A speed= 3.6x    frame= 4408 fps= 86 q=-0.0 size=N/A time=00:03:03.85 bitrate=N/A speed= 3.6x    frame= 4451 fps= 86 q=-0.0 size=N/A time=00:03:05.64 bitrate=N/A speed= 3.6x    frame= 4495 fps= 86 q=-0.0 size=N/A time=00:03:07.47 bitrate=N/A speed= 3.6x    frame= 4540 fps= 86 q=-0.0 size=N/A time=00:03:09.35 bitrate=N/A speed= 3.6x    frame= 4585 fps= 86 q=-0.0 size=N/A time=00:03:11.23 bitrate=N/A speed= 3.6x    frame= 4628 fps= 86 q=-0.0 size=N/A time=00:03:13.02 bitrate=N/A speed= 3.6x    frame= 4669 fps= 86 q=-0.0 size=N/A time=00:03:14.73 bitrate=N/A speed= 3.6x    frame= 4714 fps= 86 q=-0.0 size=N/A time=00:03:16.61 bitrate=N/A speed= 3.6x    frame= 4757 fps= 86 q=-0.0 size=N/A time=00:03:18.40 bitrate=N/A speed= 3.6x    frame= 4801 fps= 86 q=-0.0 size=N/A time=00:03:20.24 bitrate=N/A speed= 3.6x    frame= 4845 fps= 86 q=-0.0 size=N/A time=00:03:22.07 bitrate=N/A speed=3.59x    frame= 4885 fps= 86 q=-0.0 size=N/A time=00:03:23.74 bitrate=N/A speed=3.59x    frame= 4932 fps= 86 q=-0.0 size=N/A time=00:03:25.70 bitrate=N/A speed=3.59x    frame= 4978 fps= 86 q=-0.0 size=N/A time=00:03:27.62 bitrate=N/A speed=3.59x    frame= 5023 fps= 86 q=-0.0 size=N/A time=00:03:29.50 bitrate=N/A speed=3.59x    frame= 5066 fps= 86 q=-0.0 size=N/A time=00:03:31.29 bitrate=N/A speed=3.59x    frame= 5111 fps= 86 q=-0.0 size=N/A time=00:03:33.17 bitrate=N/A speed=3.59x    frame= 5155 fps= 86 q=-0.0 size=N/A time=00:03:35.00 bitrate=N/A speed=3.59x    frame= 5199 fps= 86 q=-0.0 size=N/A time=00:03:36.84 bitrate=N/A speed=3.59x    frame= 5245 fps= 86 q=-0.0 size=N/A time=00:03:38.76 bitrate=N/A speed=3.59x    frame= 5289 fps= 86 q=-0.0 size=N/A time=00:03:40.59 bitrate=N/A speed=3.59x    frame= 5333 fps= 86 q=-0.0 size=N/A time=00:03:42.43 bitrate=N/A speed=3.59x    frame= 5381 fps= 86 q=-0.0 size=N/A time=00:03:44.43 bitrate=N/A speed= 3.6x    frame= 5426 fps= 86 q=-0.0 size=N/A time=00:03:46.30 bitrate=N/A speed= 3.6x    frame= 5470 fps= 86 q=-0.0 size=N/A time=00:03:48.14 bitrate=N/A speed= 3.6x    frame= 5517 fps= 86 q=-0.0 size=N/A time=00:03:50.10 bitrate=N/A speed= 3.6x    frame= 5559 fps= 86 q=-0.0 size=N/A time=00:03:51.85 bitrate=N/A speed= 3.6x    frame= 5604 fps= 86 q=-0.0 size=N/A time=00:03:53.73 bitrate=N/A speed= 3.6x    frame= 5649 fps= 86 q=-0.0 size=N/A time=00:03:55.61 bitrate=N/A speed= 3.6x    frame= 5693 fps= 86 q=-0.0 size=N/A time=00:03:57.44 bitrate=N/A speed= 3.6x    frame= 5739 fps= 86 q=-0.0 size=N/A time=00:03:59.36 bitrate=N/A speed= 3.6x    frame= 5785 fps= 86 q=-0.0 size=N/A time=00:04:01.28 bitrate=N/A speed= 3.6x    frame= 5829 fps= 86 q=-0.0 size=N/A time=00:04:03.11 bitrate=N/A speed= 3.6x    frame= 5876 fps= 86 q=-0.0 size=N/A time=00:04:05.07 bitrate=N/A speed= 3.6x    frame= 5920 fps= 86 q=-0.0 size=N/A time=00:04:06.91 bitrate=N/A speed= 3.6x    frame= 5963 fps= 86 q=-0.0 size=N/A time=00:04:08.70 bitrate=N/A speed= 3.6x    frame= 6009 fps= 86 q=-0.0 size=N/A time=00:04:10.62 bitrate=N/A speed= 3.6x    frame= 6054 fps= 86 q=-0.0 size=N/A time=00:04:12.50 bitrate=N/A speed= 3.6x    frame= 6099 fps= 86 q=-0.0 size=N/A time=00:04:14.37 bitrate=N/A speed= 3.6x    frame= 6145 fps= 86 q=-0.0 size=N/A time=00:04:16.33 bitrate=N/A speed= 3.6x    frame= 6189 fps= 86 q=-0.0 size=N/A time=00:04:18.13 bitrate=N/A speed= 3.6x    frame= 6234 fps= 86 q=-0.0 size=N/A time=00:04:20.00 bitrate=N/A speed= 3.6x    frame= 6275 fps= 86 q=-0.0 size=N/A time=00:04:21.71 bitrate=N/A speed= 3.6x    frame= 6320 fps= 86 q=-0.0 size=N/A time=00:04:23.59 bitrate=N/A speed= 3.6x    frame= 6365 fps= 86 q=-0.0 size=N/A time=00:04:25.47 bitrate=N/A speed= 3.6x    frame= 6408 fps= 86 q=-0.0 size=N/A time=00:04:27.26 bitrate=N/A speed= 3.6x    frame= 6454 fps= 86 q=-0.0 size=N/A time=00:04:29.18 bitrate=N/A speed= 3.6x    frame= 6500 fps= 86 q=-0.0 size=N/A time=00:04:31.10 bitrate=N/A speed= 3.6x    frame= 6545 fps= 86 q=-0.0 size=N/A time=00:04:32.98 bitrate=N/A speed= 3.6x    frame= 6592 fps= 86 q=-0.0 size=N/A time=00:04:34.94 bitrate=N/A speed= 3.6x    frame= 6636 fps= 86 q=-0.0 size=N/A time=00:04:36.77 bitrate=N/A speed= 3.6x    frame= 6680 fps= 86 q=-0.0 size=N/A time=00:04:38.61 bitrate=N/A speed= 3.6x    frame= 6725 fps= 86 q=-0.0 size=N/A time=00:04:40.48 bitrate=N/A speed= 3.6x    frame= 6769 fps= 86 q=-0.0 size=N/A time=00:04:42.32 bitrate=N/A speed= 3.6x    frame= 6815 fps= 86 q=-0.0 size=N/A time=00:04:44.24 bitrate=N/A speed= 3.6x    frame= 6858 fps= 86 q=-0.0 size=N/A time=00:04:46.03 bitrate=N/A speed= 3.6x    frame= 6901 fps= 86 q=-0.0 size=N/A time=00:04:47.82 bitrate=N/A speed= 3.6x    frame= 6944 fps= 86 q=-0.0 size=N/A time=00:04:49.62 bitrate=N/A speed= 3.6x    frame= 6989 fps= 86 q=-0.0 size=N/A time=00:04:51.49 bitrate=N/A speed= 3.6x    frame= 7033 fps= 86 q=-0.0 size=N/A time=00:04:53.33 bitrate=N/A speed= 3.6x    frame= 7079 fps= 86 q=-0.0 size=N/A time=00:04:55.25 bitrate=N/A speed= 3.6x    frame= 7125 fps= 86 q=-0.0 size=N/A time=00:04:57.17 bitrate=N/A speed= 3.6x    frame= 7171 fps= 86 q=-0.0 size=N/A time=00:04:59.09 bitrate=N/A speed= 3.6x    frame= 7217 fps= 86 q=-0.0 size=N/A time=00:05:01.00 bitrate=N/A speed= 3.6x    frame= 7263 fps= 86 q=-0.0 size=N/A time=00:05:02.92 bitrate=N/A speed= 3.6x    frame= 7308 fps= 86 q=-0.0 size=N/A time=00:05:04.80 bitrate=N/A speed= 3.6x    frame= 7355 fps= 86 q=-0.0 size=N/A time=00:05:06.76 bitrate=N/A speed= 3.6x    frame= 7400 fps= 86 q=-0.0 size=N/A time=00:05:08.64 bitrate=N/A speed= 3.6x    frame= 7445 fps= 86 q=-0.0 size=N/A time=00:05:10.51 bitrate=N/A speed=3.61x    frame= 7490 fps= 86 q=-0.0 size=N/A time=00:05:12.39 bitrate=N/A speed= 3.6x    frame= 7535 fps= 86 q=-0.0 size=N/A time=00:05:14.27 bitrate=N/A speed=3.61x    frame= 7580 fps= 86 q=-0.0 size=N/A time=00:05:16.14 bitrate=N/A speed=3.61x    frame= 7626 fps= 86 q=-0.0 size=N/A time=00:05:18.06 bitrate=N/A speed=3.61x    frame= 7672 fps= 86 q=-0.0 size=N/A time=00:05:19.98 bitrate=N/A speed=3.61x    frame= 7714 fps= 86 q=-0.0 size=N/A time=00:05:21.73 bitrate=N/A speed=3.61x    frame= 7757 fps= 86 q=-0.0 size=N/A time=00:05:23.53 bitrate=N/A speed= 3.6x    frame= 7802 fps= 86 q=-0.0 size=N/A time=00:05:25.40 bitrate=N/A speed=3.61x    frame= 7847 fps= 86 q=-0.0 size=N/A time=00:05:27.28 bitrate=N/A speed=3.61x    frame= 7894 fps= 86 q=-0.0 size=N/A time=00:05:29.24 bitrate=N/A speed=3.61x    frame= 7939 fps= 86 q=-0.0 size=N/A time=00:05:31.12 bitrate=N/A speed=3.61x    frame= 7985 fps= 86 q=-0.0 size=N/A time=00:05:33.04 bitrate=N/A speed=3.61x    frame= 8031 fps= 86 q=-0.0 size=N/A time=00:05:34.95 bitrate=N/A speed=3.61x    frame= 8077 fps= 87 q=-0.0 size=N/A time=00:05:36.87 bitrate=N/A speed=3.61x    frame= 8122 fps= 87 q=-0.0 size=N/A time=00:05:38.75 bitrate=N/A speed=3.61x    frame= 8168 fps= 87 q=-0.0 size=N/A time=00:05:40.67 bitrate=N/A speed=3.61x    frame= 8212 fps= 87 q=-0.0 size=N/A time=00:05:42.50 bitrate=N/A speed=3.61x    frame= 8258 fps= 87 q=-0.0 size=N/A time=00:05:44.42 bitrate=N/A speed=3.61x    frame= 8303 fps= 87 q=-0.0 size=N/A time=00:05:46.30 bitrate=N/A speed=3.61x    frame= 8348 fps= 87 q=-0.0 size=N/A time=00:05:48.18 bitrate=N/A speed=3.61x    frame= 8393 fps= 87 q=-0.0 size=N/A time=00:05:50.05 bitrate=N/A speed=3.61x    frame= 8438 fps= 87 q=-0.0 size=N/A time=00:05:51.93 bitrate=N/A speed=3.61x    frame= 8483 fps= 87 q=-0.0 size=N/A time=00:05:53.81 bitrate=N/A speed=3.61x    frame= 8528 fps= 87 q=-0.0 size=N/A time=00:05:55.68 bitrate=N/A speed=3.61x    frame= 8573 fps= 87 q=-0.0 size=N/A time=00:05:57.56 bitrate=N/A speed=3.61x    frame= 8620 fps= 87 q=-0.0 size=N/A time=00:05:59.52 bitrate=N/A speed=3.61x    frame= 8664 fps= 87 q=-0.0 size=N/A time=00:06:01.36 bitrate=N/A speed=3.61x    frame= 8708 fps= 87 q=-0.0 size=N/A time=00:06:03.19 bitrate=N/A speed=3.61x    frame= 8752 fps= 87 q=-0.0 size=N/A time=00:06:05.03 bitrate=N/A speed=3.61x    frame= 8798 fps= 87 q=-0.0 size=N/A time=00:06:06.94 bitrate=N/A speed=3.61x    frame= 8840 fps= 87 q=-0.0 size=N/A time=00:06:08.70 bitrate=N/A speed=3.61x    frame= 8886 fps= 87 q=-0.0 size=N/A time=00:06:10.62 bitrate=N/A speed=3.61x    frame= 8931 fps= 87 q=-0.0 size=N/A time=00:06:12.49 bitrate=N/A speed=3.61x    frame= 8974 fps= 87 q=-0.0 size=N/A time=00:06:14.29 bitrate=N/A speed=3.61x    frame= 9019 fps= 87 q=-0.0 size=N/A time=00:06:16.16 bitrate=N/A speed=3.61x    frame= 9062 fps= 87 q=-0.0 size=N/A time=00:06:17.96 bitrate=N/A speed=3.61x    frame= 9106 fps= 87 q=-0.0 size=N/A time=00:06:19.79 bitrate=N/A speed=3.61x    frame= 9150 fps= 87 q=-0.0 size=N/A time=00:06:21.63 bitrate=N/A speed=3.61x    frame= 9195 fps= 87 q=-0.0 size=N/A time=00:06:23.50 bitrate=N/A speed=3.61x    frame= 9241 fps= 87 q=-0.0 size=N/A time=00:06:25.42 bitrate=N/A speed=3.61x    frame= 9285 fps= 87 q=-0.0 size=N/A time=00:06:27.26 bitrate=N/A speed=3.61x    frame= 9328 fps= 87 q=-0.0 size=N/A time=00:06:29.05 bitrate=N/A speed=3.61x    frame= 9372 fps= 87 q=-0.0 size=N/A time=00:06:30.89 bitrate=N/A speed=3.61x    frame= 9415 fps= 87 q=-0.0 size=N/A time=00:06:32.68 bitrate=N/A speed=3.61x    frame= 9458 fps= 86 q=-0.0 size=N/A time=00:06:34.47 bitrate=N/A speed=3.61x    frame= 9501 fps= 86 q=-0.0 size=N/A time=00:06:36.27 bitrate=N/A speed=3.61x    frame= 9544 fps= 86 q=-0.0 size=N/A time=00:06:38.06 bitrate=N/A speed=3.61x    frame= 9586 fps= 86 q=-0.0 size=N/A time=00:06:39.81 bitrate=N/A speed=3.61x    frame= 9628 fps= 86 q=-0.0 size=N/A time=00:06:41.56 bitrate=N/A speed= 3.6x    frame= 9671 fps= 86 q=-0.0 size=N/A time=00:06:43.36 bitrate=N/A speed= 3.6x    frame= 9716 fps= 86 q=-0.0 size=N/A time=00:06:45.23 bitrate=N/A speed= 3.6x    frame= 9759 fps= 86 q=-0.0 size=N/A time=00:06:47.03 bitrate=N/A speed= 3.6x    frame= 9804 fps= 86 q=-0.0 size=N/A time=00:06:48.90 bitrate=N/A speed= 3.6x    frame= 9853 fps= 86 q=-0.0 size=N/A time=00:06:50.95 bitrate=N/A speed= 3.6x    frame= 9898 fps= 86 q=-0.0 size=N/A time=00:06:52.82 bitrate=N/A speed=3.61x    frame= 9945 fps= 86 q=-0.0 size=N/A time=00:06:54.78 bitrate=N/A speed=3.61x    frame= 9989 fps= 86 q=-0.0 size=N/A time=00:06:56.62 bitrate=N/A speed=3.61x    frame=10034 fps= 86 q=-0.0 size=N/A time=00:06:58.50 bitrate=N/A speed=3.61x    frame=10078 fps= 86 q=-0.0 size=N/A time=00:07:00.33 bitrate=N/A speed=3.61x    frame=10120 fps= 86 q=-0.0 size=N/A time=00:07:02.08 bitrate=N/A speed= 3.6x    frame=10164 fps= 86 q=-0.0 size=N/A time=00:07:03.92 bitrate=N/A speed= 3.6x    frame=10208 fps= 86 q=-0.0 size=N/A time=00:07:05.75 bitrate=N/A speed= 3.6x    frame=10252 fps= 86 q=-0.0 size=N/A time=00:07:07.59 bitrate=N/A speed= 3.6x    frame=10295 fps= 86 q=-0.0 size=N/A time=00:07:09.38 bitrate=N/A speed= 3.6x    frame=10340 fps= 86 q=-0.0 size=N/A time=00:07:11.26 bitrate=N/A speed= 3.6x    frame=10384 fps= 86 q=-0.0 size=N/A time=00:07:13.09 bitrate=N/A speed= 3.6x    frame=10427 fps= 86 q=-0.0 size=N/A time=00:07:14.89 bitrate=N/A speed= 3.6x    frame=10471 fps= 86 q=-0.0 size=N/A time=00:07:16.72 bitrate=N/A speed= 3.6x    frame=10516 fps= 86 q=-0.0 size=N/A time=00:07:18.60 bitrate=N/A speed= 3.6x    frame=10560 fps= 86 q=-0.0 size=N/A time=00:07:20.44 bitrate=N/A speed= 3.6x    frame=10605 fps= 86 q=-0.0 size=N/A time=00:07:22.31 bitrate=N/A speed= 3.6x    frame=10651 fps= 86 q=-0.0 size=N/A time=00:07:24.23 bitrate=N/A speed= 3.6x    frame=10696 fps= 86 q=-0.0 size=N/A time=00:07:26.11 bitrate=N/A speed= 3.6x    frame=10741 fps= 86 q=-0.0 size=N/A time=00:07:27.98 bitrate=N/A speed= 3.6x    frame=10783 fps= 86 q=-0.0 size=N/A time=00:07:29.74 bitrate=N/A speed= 3.6x    frame=10827 fps= 86 q=-0.0 size=N/A time=00:07:31.57 bitrate=N/A speed= 3.6x    frame=10870 fps= 86 q=-0.0 size=N/A time=00:07:33.36 bitrate=N/A speed= 3.6x    frame=10917 fps= 86 q=-0.0 size=N/A time=00:07:35.32 bitrate=N/A speed= 3.6x    frame=10962 fps= 86 q=-0.0 size=N/A time=00:07:37.20 bitrate=N/A speed= 3.6x    frame=11006 fps= 86 q=-0.0 size=N/A time=00:07:39.04 bitrate=N/A speed= 3.6x    frame=11051 fps= 86 q=-0.0 size=N/A time=00:07:40.91 bitrate=N/A speed= 3.6x    frame=11095 fps= 86 q=-0.0 size=N/A time=00:07:42.75 bitrate=N/A speed= 3.6x    frame=11140 fps= 86 q=-0.0 size=N/A time=00:07:44.63 bitrate=N/A speed= 3.6x    frame=11184 fps= 86 q=-0.0 size=N/A time=00:07:46.46 bitrate=N/A speed= 3.6x    frame=11230 fps= 86 q=-0.0 size=N/A time=00:07:48.38 bitrate=N/A speed= 3.6x    frame=11274 fps= 86 q=-0.0 size=N/A time=00:07:50.21 bitrate=N/A speed= 3.6x    frame=11321 fps= 86 q=-0.0 size=N/A time=00:07:52.18 bitrate=N/A speed= 3.6x    frame=11365 fps= 86 q=-0.0 size=N/A time=00:07:54.01 bitrate=N/A speed= 3.6x    frame=11410 fps= 86 q=-0.0 size=N/A time=00:07:55.89 bitrate=N/A speed= 3.6x    frame=11456 fps= 86 q=-0.0 size=N/A time=00:07:57.81 bitrate=N/A speed= 3.6x    frame=11499 fps= 86 q=-0.0 size=N/A time=00:07:59.60 bitrate=N/A speed= 3.6x    frame=11542 fps= 86 q=-0.0 size=N/A time=00:08:01.39 bitrate=N/A speed= 3.6x    frame=11586 fps= 86 q=-0.0 size=N/A time=00:08:03.23 bitrate=N/A speed= 3.6x    frame=11631 fps= 86 q=-0.0 size=N/A time=00:08:05.10 bitrate=N/A speed= 3.6x    frame=11674 fps= 86 q=-0.0 size=N/A time=00:08:06.90 bitrate=N/A speed= 3.6x    frame=11720 fps= 86 q=-0.0 size=N/A time=00:08:08.82 bitrate=N/A speed= 3.6x    frame=11763 fps= 86 q=-0.0 size=N/A time=00:08:10.61 bitrate=N/A speed= 3.6x    frame=11807 fps= 86 q=-0.0 size=N/A time=00:08:12.45 bitrate=N/A speed= 3.6x    frame=11852 fps= 86 q=-0.0 size=N/A time=00:08:14.32 bitrate=N/A speed= 3.6x    frame=11897 fps= 86 q=-0.0 size=N/A time=00:08:16.20 bitrate=N/A speed= 3.6x    frame=11942 fps= 86 q=-0.0 size=N/A time=00:08:18.08 bitrate=N/A speed= 3.6x    frame=11988 fps= 86 q=-0.0 size=N/A time=00:08:19.99 bitrate=N/A speed= 3.6x    frame=12034 fps= 86 q=-0.0 size=N/A time=00:08:21.91 bitrate=N/A speed= 3.6x    frame=12079 fps= 86 q=-0.0 size=N/A time=00:08:23.79 bitrate=N/A speed= 3.6x    frame=12124 fps= 86 q=-0.0 size=N/A time=00:08:25.67 bitrate=N/A speed= 3.6x    frame=12169 fps= 86 q=-0.0 size=N/A time=00:08:27.54 bitrate=N/A speed= 3.6x    frame=12214 fps= 86 q=-0.0 size=N/A time=00:08:29.42 bitrate=N/A speed= 3.6x    frame=12258 fps= 86 q=-0.0 size=N/A time=00:08:31.26 bitrate=N/A speed= 3.6x    frame=12305 fps= 86 q=-0.0 size=N/A time=00:08:33.22 bitrate=N/A speed=3.61x    frame=12347 fps= 86 q=-0.0 size=N/A time=00:08:34.97 bitrate=N/A speed= 3.6x    frame=12391 fps= 86 q=-0.0 size=N/A time=00:08:36.80 bitrate=N/A speed= 3.6x    frame=12436 fps= 86 q=-0.0 size=N/A time=00:08:38.68 bitrate=N/A speed= 3.6x    frame=12481 fps= 86 q=-0.0 size=N/A time=00:08:40.56 bitrate=N/A speed= 3.6x    frame=12525 fps= 86 q=-0.0 size=N/A time=00:08:42.39 bitrate=N/A speed= 3.6x    frame=12571 fps= 86 q=-0.0 size=N/A time=00:08:44.31 bitrate=N/A speed= 3.6x    frame=12616 fps= 86 q=-0.0 size=N/A time=00:08:46.19 bitrate=N/A speed= 3.6x    frame=12663 fps= 86 q=-0.0 size=N/A time=00:08:48.15 bitrate=N/A speed=3.61x    frame=12709 fps= 86 q=-0.0 size=N/A time=00:08:50.07 bitrate=N/A speed=3.61x    frame=12755 fps= 86 q=-0.0 size=N/A time=00:08:51.98 bitrate=N/A speed=3.61x    frame=12799 fps= 86 q=-0.0 size=N/A time=00:08:53.82 bitrate=N/A speed=3.61x    frame=12845 fps= 86 q=-0.0 size=N/A time=00:08:55.74 bitrate=N/A speed=3.61x    frame=12889 fps= 86 q=-0.0 size=N/A time=00:08:57.57 bitrate=N/A speed=3.61x    frame=12931 fps= 86 q=-0.0 size=N/A time=00:08:59.33 bitrate=N/A speed=3.61x    frame=12978 fps= 86 q=-0.0 size=N/A time=00:09:01.29 bitrate=N/A speed=3.61x    frame=13019 fps= 86 q=-0.0 size=N/A time=00:09:03.00 bitrate=N/A speed=3.61x    frame=13062 fps= 86 q=-0.0 size=N/A time=00:09:04.79 bitrate=N/A speed=3.61x    frame=13106 fps= 86 q=-0.0 size=N/A time=00:09:06.62 bitrate=N/A speed= 3.6x    frame=13147 fps= 86 q=-0.0 size=N/A time=00:09:08.33 bitrate=N/A speed= 3.6x    frame=13192 fps= 86 q=-0.0 size=N/A time=00:09:10.21 bitrate=N/A speed= 3.6x    frame=13235 fps= 86 q=-0.0 size=N/A time=00:09:12.00 bitrate=N/A speed= 3.6x    frame=13280 fps= 86 q=-0.0 size=N/A time=00:09:13.88 bitrate=N/A speed= 3.6x    frame=13324 fps= 86 q=-0.0 size=N/A time=00:09:15.72 bitrate=N/A speed= 3.6x    frame=13372 fps= 86 q=-0.0 size=N/A time=00:09:17.72 bitrate=N/A speed= 3.6x    frame=13417 fps= 86 q=-0.0 size=N/A time=00:09:19.60 bitrate=N/A speed= 3.6x    frame=13462 fps= 86 q=-0.0 size=N/A time=00:09:21.47 bitrate=N/A speed= 3.6x    frame=13506 fps= 86 q=-0.0 size=N/A time=00:09:23.31 bitrate=N/A speed= 3.6x    frame=13552 fps= 86 q=-0.0 size=N/A time=00:09:25.23 bitrate=N/A speed=3.61x    frame=13597 fps= 86 q=-0.0 size=N/A time=00:09:27.10 bitrate=N/A speed= 3.6x    frame=13642 fps= 86 q=-0.0 size=N/A time=00:09:28.98 bitrate=N/A speed=3.61x    frame=13684 fps= 86 q=-0.0 size=N/A time=00:09:30.73 bitrate=N/A speed= 3.6x    frame=13729 fps= 86 q=-0.0 size=N/A time=00:09:32.61 bitrate=N/A speed= 3.6x    frame=13774 fps= 86 q=-0.0 size=N/A time=00:09:34.49 bitrate=N/A speed= 3.6x    frame=13819 fps= 86 q=-0.0 size=N/A time=00:09:36.36 bitrate=N/A speed= 3.6x    frame=13866 fps= 86 q=-0.0 size=N/A time=00:09:38.32 bitrate=N/A speed=3.61x    frame=13911 fps= 86 q=-0.0 size=N/A time=00:09:40.20 bitrate=N/A speed=3.61x    frame=13954 fps= 86 q=-0.0 size=N/A time=00:09:41.99 bitrate=N/A speed=3.61x    frame=13999 fps= 86 q=-0.0 size=N/A time=00:09:43.87 bitrate=N/A speed=3.61x    frame=14043 fps= 86 q=-0.0 size=N/A time=00:09:45.71 bitrate=N/A speed=3.61x    frame=14089 fps= 86 q=-0.0 size=N/A time=00:09:47.62 bitrate=N/A speed=3.61x    frame=14131 fps= 86 q=-0.0 size=N/A time=00:09:49.38 bitrate=N/A speed= 3.6x    frame=14175 fps= 86 q=-0.0 size=N/A time=00:09:51.21 bitrate=N/A speed= 3.6x    frame=14216 fps= 86 q=-0.0 size=N/A time=00:09:52.92 bitrate=N/A speed= 3.6x    frame=14260 fps= 86 q=-0.0 size=N/A time=00:09:54.76 bitrate=N/A speed= 3.6x    frame=14304 fps= 86 q=-0.0 size=N/A time=00:09:56.59 bitrate=N/A speed= 3.6x    frame=14346 fps= 86 q=-0.0 size=N/A time=00:09:58.34 bitrate=N/A speed= 3.6x    frame=14392 fps= 86 q=-0.0 size=N/A time=00:10:00.26 bitrate=N/A speed= 3.6x    frame=14438 fps= 86 q=-0.0 size=N/A time=00:10:02.18 bitrate=N/A speed= 3.6x    frame=14481 fps= 86 q=-0.0 size=N/A time=00:10:03.97 bitrate=N/A speed= 3.6x    frame=14524 fps= 86 q=-0.0 size=N/A time=00:10:05.77 bitrate=N/A speed= 3.6x    frame=14572 fps= 86 q=-0.0 size=N/A time=00:10:07.77 bitrate=N/A speed= 3.6x    frame=14615 fps= 86 q=-0.0 size=N/A time=00:10:09.56 bitrate=N/A speed= 3.6x    frame=14660 fps= 86 q=-0.0 size=N/A time=00:10:11.44 bitrate=N/A speed= 3.6x    frame=14705 fps= 86 q=-0.0 size=N/A time=00:10:13.32 bitrate=N/A speed= 3.6x    frame=14751 fps= 86 q=-0.0 size=N/A time=00:10:15.23 bitrate=N/A speed= 3.6x    frame=14795 fps= 86 q=-0.0 size=N/A time=00:10:17.07 bitrate=N/A speed= 3.6x    frame=14842 fps= 86 q=-0.0 size=N/A time=00:10:19.03 bitrate=N/A speed= 3.6x    frame=14888 fps= 86 q=-0.0 size=N/A time=00:10:20.95 bitrate=N/A speed= 3.6x    frame=14931 fps= 86 q=-0.0 size=N/A time=00:10:22.74 bitrate=N/A speed= 3.6x    frame=14975 fps= 86 q=-0.0 size=N/A time=00:10:24.58 bitrate=N/A speed= 3.6x    frame=15021 fps= 86 q=-0.0 size=N/A time=00:10:26.50 bitrate=N/A speed= 3.6x    frame=15065 fps= 86 q=-0.0 size=N/A time=00:10:28.33 bitrate=N/A speed= 3.6x    frame=15109 fps= 86 q=-0.0 size=N/A time=00:10:30.17 bitrate=N/A speed= 3.6x    frame=15154 fps= 86 q=-0.0 size=N/A time=00:10:32.04 bitrate=N/A speed= 3.6x    frame=15199 fps= 86 q=-0.0 size=N/A time=00:10:33.92 bitrate=N/A speed= 3.6x    frame=15244 fps= 86 q=-0.0 size=N/A time=00:10:35.80 bitrate=N/A speed= 3.6x    frame=15290 fps= 86 q=-0.0 size=N/A time=00:10:37.72 bitrate=N/A speed= 3.6x    frame=15336 fps= 86 q=-0.0 size=N/A time=00:10:39.63 bitrate=N/A speed= 3.6x    frame=15381 fps= 86 q=-0.0 size=N/A time=00:10:41.51 bitrate=N/A speed=3.61x    frame=15427 fps= 86 q=-0.0 size=N/A time=00:10:43.43 bitrate=N/A speed=3.61x    frame=15472 fps= 86 q=-0.0 size=N/A time=00:10:45.31 bitrate=N/A speed=3.61x    frame=15516 fps= 86 q=-0.0 size=N/A time=00:10:47.14 bitrate=N/A speed=3.61x    frame=15562 fps= 86 q=-0.0 size=N/A time=00:10:49.06 bitrate=N/A speed=3.61x    frame=15605 fps= 86 q=-0.0 size=N/A time=00:10:50.85 bitrate=N/A speed=3.61x    frame=15648 fps= 86 q=-0.0 size=N/A time=00:10:52.65 bitrate=N/A speed=3.61x    frame=15694 fps= 86 q=-0.0 size=N/A time=00:10:54.57 bitrate=N/A speed=3.61x    frame=15740 fps= 86 q=-0.0 size=N/A time=00:10:56.48 bitrate=N/A speed=3.61x    frame=15785 fps= 86 q=-0.0 size=N/A time=00:10:58.36 bitrate=N/A speed=3.61x    frame=15831 fps= 86 q=-0.0 size=N/A time=00:11:00.28 bitrate=N/A speed=3.61x    frame=15875 fps= 86 q=-0.0 size=N/A time=00:11:02.11 bitrate=N/A speed=3.61x    frame=15921 fps= 86 q=-0.0 size=N/A time=00:11:04.03 bitrate=N/A speed=3.61x    frame=15965 fps= 86 q=-0.0 size=N/A time=00:11:05.87 bitrate=N/A speed=3.61x    frame=16010 fps= 86 q=-0.0 size=N/A time=00:11:07.75 bitrate=N/A speed=3.61x    frame=16056 fps= 86 q=-0.0 size=N/A time=00:11:09.66 bitrate=N/A speed=3.61x    frame=16102 fps= 86 q=-0.0 size=N/A time=00:11:11.58 bitrate=N/A speed=3.61x    frame=16147 fps= 86 q=-0.0 size=N/A time=00:11:13.46 bitrate=N/A speed=3.61x    frame=16195 fps= 86 q=-0.0 size=N/A time=00:11:15.46 bitrate=N/A speed=3.61x    frame=16240 fps= 87 q=-0.0 size=N/A time=00:11:17.34 bitrate=N/A speed=3.61x    frame=16284 fps= 86 q=-0.0 size=N/A time=00:11:19.17 bitrate=N/A speed=3.61x    frame=16330 fps= 87 q=-0.0 size=N/A time=00:11:21.09 bitrate=N/A speed=3.61x    frame=16376 fps= 87 q=-0.0 size=N/A time=00:11:23.01 bitrate=N/A speed=3.61x    frame=16419 fps= 87 q=-0.0 size=N/A time=00:11:24.80 bitrate=N/A speed=3.61x    frame=16465 fps= 87 q=-0.0 size=N/A time=00:11:26.72 bitrate=N/A speed=3.61x    frame=16510 fps= 87 q=-0.0 size=N/A time=00:11:28.60 bitrate=N/A speed=3.61x    frame=16555 fps= 87 q=-0.0 size=N/A time=00:11:30.48 bitrate=N/A speed=3.61x    frame=16600 fps= 87 q=-0.0 size=N/A time=00:11:32.35 bitrate=N/A speed=3.61x    frame=16646 fps= 87 q=-0.0 size=N/A time=00:11:34.27 bitrate=N/A speed=3.61x    frame=16690 fps= 87 q=-0.0 size=N/A time=00:11:36.11 bitrate=N/A speed=3.61x    frame=16736 fps= 87 q=-0.0 size=N/A time=00:11:38.03 bitrate=N/A speed=3.61x    frame=16779 fps= 87 q=-0.0 size=N/A time=00:11:39.82 bitrate=N/A speed=3.61x    frame=16825 fps= 87 q=-0.0 size=N/A time=00:11:41.74 bitrate=N/A speed=3.61x    frame=16872 fps= 87 q=-0.0 size=N/A time=00:11:43.70 bitrate=N/A speed=3.61x    frame=16915 fps= 87 q=-0.0 size=N/A time=00:11:45.49 bitrate=N/A speed=3.61x    frame=16958 fps= 87 q=-0.0 size=N/A time=00:11:47.28 bitrate=N/A speed=3.61x    frame=17003 fps= 87 q=-0.0 size=N/A time=00:11:49.16 bitrate=N/A speed=3.61x    frame=17049 fps= 87 q=-0.0 size=N/A time=00:11:51.08 bitrate=N/A speed=3.61x    frame=17093 fps= 87 q=-0.0 size=N/A time=00:11:52.92 bitrate=N/A speed=3.61x    frame=17138 fps= 87 q=-0.0 size=N/A time=00:11:54.79 bitrate=N/A speed=3.61x    frame=17182 fps= 87 q=-0.0 size=N/A time=00:11:56.63 bitrate=N/A speed=3.61x    frame=17227 fps= 87 q=-0.0 size=N/A time=00:11:58.50 bitrate=N/A speed=3.61x    frame=17272 fps= 87 q=-0.0 size=N/A time=00:12:00.38 bitrate=N/A speed=3.61x    frame=17318 fps= 87 q=-0.0 size=N/A time=00:12:02.30 bitrate=N/A speed=3.61x    frame=17363 fps= 87 q=-0.0 size=N/A time=00:12:04.18 bitrate=N/A speed=3.61x    frame=17409 fps= 87 q=-0.0 size=N/A time=00:12:06.10 bitrate=N/A speed=3.61x    frame=17455 fps= 87 q=-0.0 size=N/A time=00:12:08.01 bitrate=N/A speed=3.61x    frame=17500 fps= 87 q=-0.0 size=N/A time=00:12:09.89 bitrate=N/A speed=3.61x    frame=17545 fps= 87 q=-0.0 size=N/A time=00:12:11.77 bitrate=N/A speed=3.61x    frame=17590 fps= 87 q=-0.0 size=N/A time=00:12:13.64 bitrate=N/A speed=3.61x    frame=17635 fps= 87 q=-0.0 size=N/A time=00:12:15.52 bitrate=N/A speed=3.61x    frame=17681 fps= 87 q=-0.0 size=N/A time=00:12:17.44 bitrate=N/A speed=3.61x    frame=17723 fps= 87 q=-0.0 size=N/A time=00:12:19.19 bitrate=N/A speed=3.61x    frame=17770 fps= 87 q=-0.0 size=N/A time=00:12:21.15 bitrate=N/A speed=3.61x    frame=17815 fps= 87 q=-0.0 size=N/A time=00:12:23.03 bitrate=N/A speed=3.61x    frame=17858 fps= 87 q=-0.0 size=N/A time=00:12:24.82 bitrate=N/A speed=3.61x    frame=17903 fps= 87 q=-0.0 size=N/A time=00:12:26.70 bitrate=N/A speed=3.61x    frame=17949 fps= 87 q=-0.0 size=N/A time=00:12:28.62 bitrate=N/A speed=3.61x    frame=17994 fps= 87 q=-0.0 size=N/A time=00:12:30.49 bitrate=N/A speed=3.61x    frame=18038 fps= 87 q=-0.0 size=N/A time=00:12:32.33 bitrate=N/A speed=3.61x    frame=18082 fps= 87 q=-0.0 size=N/A time=00:12:34.17 bitrate=N/A speed=3.61x    frame=18125 fps= 87 q=-0.0 size=N/A time=00:12:35.96 bitrate=N/A speed=3.61x    frame=18172 fps= 87 q=-0.0 size=N/A time=00:12:37.92 bitrate=N/A speed=3.61x    frame=18218 fps= 87 q=-0.0 size=N/A time=00:12:39.84 bitrate=N/A speed=3.61x    frame=18262 fps= 87 q=-0.0 size=N/A time=00:12:41.67 bitrate=N/A speed=3.61x    frame=18307 fps= 87 q=-0.0 size=N/A time=00:12:43.55 bitrate=N/A speed=3.61x    frame=18352 fps= 87 q=-0.0 size=N/A time=00:12:45.43 bitrate=N/A speed=3.61x    frame=18400 fps= 87 q=-0.0 size=N/A time=00:12:47.43 bitrate=N/A speed=3.61x    frame=18445 fps= 87 q=-0.0 size=N/A time=00:12:49.31 bitrate=N/A speed=3.61x    frame=18491 fps= 87 q=-0.0 size=N/A time=00:12:51.22 bitrate=N/A speed=3.61x    frame=18535 fps= 87 q=-0.0 size=N/A time=00:12:53.06 bitrate=N/A speed=3.61x    frame=18581 fps= 87 q=-0.0 size=N/A time=00:12:54.98 bitrate=N/A speed=3.61x    frame=18625 fps= 87 q=-0.0 size=N/A time=00:12:56.81 bitrate=N/A speed=3.61x    frame=18669 fps= 87 q=-0.0 size=N/A time=00:12:58.65 bitrate=N/A speed=3.61x    frame=18713 fps= 87 q=-0.0 size=N/A time=00:13:00.48 bitrate=N/A speed=3.61x    frame=18758 fps= 87 q=-0.0 size=N/A time=00:13:02.36 bitrate=N/A speed=3.61x    frame=18802 fps= 87 q=-0.0 size=N/A time=00:13:04.20 bitrate=N/A speed=3.61x    frame=18846 fps= 87 q=-0.0 size=N/A time=00:13:06.03 bitrate=N/A speed=3.61x    frame=18891 fps= 87 q=-0.0 size=N/A time=00:13:07.91 bitrate=N/A speed=3.61x    frame=18935 fps= 87 q=-0.0 size=N/A time=00:13:09.74 bitrate=N/A speed=3.61x    frame=18978 fps= 87 q=-0.0 size=N/A time=00:13:11.54 bitrate=N/A speed=3.61x    frame=19023 fps= 87 q=-0.0 size=N/A time=00:13:13.41 bitrate=N/A speed=3.61x    frame=19068 fps= 87 q=-0.0 size=N/A time=00:13:15.29 bitrate=N/A speed=3.61x    frame=19111 fps= 87 q=-0.0 size=N/A time=00:13:17.08 bitrate=N/A speed=3.61x    frame=19157 fps= 87 q=-0.0 size=N/A time=00:13:19.00 bitrate=N/A speed=3.61x    frame=19200 fps= 87 q=-0.0 size=N/A time=00:13:20.80 bitrate=N/A speed=3.61x    frame=19247 fps= 87 q=-0.0 size=N/A time=00:13:22.76 bitrate=N/A speed=3.61x    frame=19290 fps= 87 q=-0.0 size=N/A time=00:13:24.55 bitrate=N/A speed=3.61x    frame=19337 fps= 87 q=-0.0 size=N/A time=00:13:26.51 bitrate=N/A speed=3.61x    frame=19382 fps= 87 q=-0.0 size=N/A time=00:13:28.39 bitrate=N/A speed=3.61x    frame=19424 fps= 87 q=-0.0 size=N/A time=00:13:30.14 bitrate=N/A speed=3.61x    frame=19469 fps= 87 q=-0.0 size=N/A time=00:13:32.01 bitrate=N/A speed=3.61x    frame=19514 fps= 87 q=-0.0 size=N/A time=00:13:33.89 bitrate=N/A speed=3.61x    frame=19559 fps= 87 q=-0.0 size=N/A time=00:13:35.77 bitrate=N/A speed=3.61x    frame=19604 fps= 87 q=-0.0 size=N/A time=00:13:37.65 bitrate=N/A speed=3.61x    frame=19650 fps= 87 q=-0.0 size=N/A time=00:13:39.56 bitrate=N/A speed=3.61x    frame=19693 fps= 87 q=-0.0 size=N/A time=00:13:41.36 bitrate=N/A speed=3.61x    frame=19739 fps= 87 q=-0.0 size=N/A time=00:13:43.28 bitrate=N/A speed=3.61x    frame=19781 fps= 87 q=-0.0 size=N/A time=00:13:45.03 bitrate=N/A speed=3.61x    frame=19825 fps= 87 q=-0.0 size=N/A time=00:13:46.86 bitrate=N/A speed=3.61x    frame=19869 fps= 87 q=-0.0 size=N/A time=00:13:48.70 bitrate=N/A speed=3.61x    frame=19913 fps= 87 q=-0.0 size=N/A time=00:13:50.53 bitrate=N/A speed=3.61x    frame=19960 fps= 87 q=-0.0 size=N/A time=00:13:52.49 bitrate=N/A speed=3.61x    frame=20003 fps= 87 q=-0.0 size=N/A time=00:13:54.29 bitrate=N/A speed=3.61x    frame=20047 fps= 87 q=-0.0 size=N/A time=00:13:56.12 bitrate=N/A speed=3.61x    frame=20093 fps= 87 q=-0.0 size=N/A time=00:13:58.04 bitrate=N/A speed=3.61x    frame=20138 fps= 87 q=-0.0 size=N/A time=00:13:59.92 bitrate=N/A speed=3.61x    frame=20182 fps= 87 q=-0.0 size=N/A time=00:14:01.75 bitrate=N/A speed=3.61x    frame=20226 fps= 87 q=-0.0 size=N/A time=00:14:03.59 bitrate=N/A speed=3.61x    frame=20269 fps= 87 q=-0.0 size=N/A time=00:14:05.38 bitrate=N/A speed=3.61x    frame=20313 fps= 87 q=-0.0 size=N/A time=00:14:07.22 bitrate=N/A speed=3.61x    frame=20357 fps= 87 q=-0.0 size=N/A time=00:14:09.05 bitrate=N/A speed=3.61x    frame=20402 fps= 87 q=-0.0 size=N/A time=00:14:10.93 bitrate=N/A speed=3.61x    frame=20447 fps= 87 q=-0.0 size=N/A time=00:14:12.81 bitrate=N/A speed=3.61x    frame=20493 fps= 87 q=-0.0 size=N/A time=00:14:14.72 bitrate=N/A speed=3.61x    frame=20540 fps= 87 q=-0.0 size=N/A time=00:14:16.68 bitrate=N/A speed=3.61x    frame=20583 fps= 87 q=-0.0 size=N/A time=00:14:18.48 bitrate=N/A speed=3.61x    frame=20629 fps= 87 q=-0.0 size=N/A time=00:14:20.40 bitrate=N/A speed=3.61x    frame=20674 fps= 87 q=-0.0 size=N/A time=00:14:22.27 bitrate=N/A speed=3.61x    frame=20720 fps= 87 q=-0.0 size=N/A time=00:14:24.19 bitrate=N/A speed=3.61x    frame=20763 fps= 87 q=-0.0 size=N/A time=00:14:25.99 bitrate=N/A speed=3.61x    frame=20808 fps= 87 q=-0.0 size=N/A time=00:14:27.86 bitrate=N/A speed=3.61x    frame=20851 fps= 87 q=-0.0 size=N/A time=00:14:29.66 bitrate=N/A speed=3.61x    frame=20897 fps= 87 q=-0.0 size=N/A time=00:14:31.57 bitrate=N/A speed=3.61x    frame=20942 fps= 87 q=-0.0 size=N/A time=00:14:33.45 bitrate=N/A speed=3.61x    frame=20983 fps= 87 q=-0.0 size=N/A time=00:14:35.16 bitrate=N/A speed=3.61x    frame=21027 fps= 87 q=-0.0 size=N/A time=00:14:37.00 bitrate=N/A speed=3.61x    frame=21072 fps= 87 q=-0.0 size=N/A time=00:14:38.87 bitrate=N/A speed=3.61x    frame=21120 fps= 87 q=-0.0 size=N/A time=00:14:40.88 bitrate=N/A speed=3.61x    frame=21162 fps= 87 q=-0.0 size=N/A time=00:14:42.63 bitrate=N/A speed=3.61x    frame=21207 fps= 87 q=-0.0 size=N/A time=00:14:44.50 bitrate=N/A speed=3.61x    frame=21251 fps= 87 q=-0.0 size=N/A time=00:14:46.34 bitrate=N/A speed=3.61x    frame=21298 fps= 87 q=-0.0 size=N/A time=00:14:48.30 bitrate=N/A speed=3.61x    frame=21341 fps= 87 q=-0.0 size=N/A time=00:14:50.09 bitrate=N/A speed=3.61x    frame=21388 fps= 87 q=-0.0 size=N/A time=00:14:52.05 bitrate=N/A speed=3.61x    frame=21431 fps= 87 q=-0.0 size=N/A time=00:14:53.85 bitrate=N/A speed=3.61x    frame=21475 fps= 87 q=-0.0 size=N/A time=00:14:55.68 bitrate=N/A speed=3.61x    frame=21519 fps= 87 q=-0.0 size=N/A time=00:14:57.52 bitrate=N/A speed=3.61x    frame=21563 fps= 87 q=-0.0 size=N/A time=00:14:59.35 bitrate=N/A speed=3.61x    frame=21608 fps= 87 q=-0.0 size=N/A time=00:15:01.23 bitrate=N/A speed=3.61x    frame=21652 fps= 87 q=-0.0 size=N/A time=00:15:03.06 bitrate=N/A speed=3.61x    frame=21699 fps= 87 q=-0.0 size=N/A time=00:15:05.02 bitrate=N/A speed=3.61x    frame=21744 fps= 87 q=-0.0 size=N/A time=00:15:06.90 bitrate=N/A speed=3.61x    frame=21788 fps= 87 q=-0.0 size=N/A time=00:15:08.74 bitrate=N/A speed=3.61x    frame=21835 fps= 87 q=-0.0 size=N/A time=00:15:10.70 bitrate=N/A speed=3.61x    frame=21881 fps= 87 q=-0.0 size=N/A time=00:15:12.62 bitrate=N/A speed=3.61x    frame=21927 fps= 87 q=-0.0 size=N/A time=00:15:14.53 bitrate=N/A speed=3.61x    frame=21971 fps= 87 q=-0.0 size=N/A time=00:15:16.37 bitrate=N/A speed=3.61x    frame=22013 fps= 87 q=-0.0 size=N/A time=00:15:18.12 bitrate=N/A speed=3.61x    frame=22058 fps= 87 q=-0.0 size=N/A time=00:15:20.00 bitrate=N/A speed=3.61x    frame=22103 fps= 87 q=-0.0 size=N/A time=00:15:21.87 bitrate=N/A speed=3.61x    frame=22145 fps= 87 q=-0.0 size=N/A time=00:15:23.63 bitrate=N/A speed=3.61x    frame=22190 fps= 87 q=-0.0 size=N/A time=00:15:25.50 bitrate=N/A speed=3.61x    frame=22234 fps= 87 q=-0.0 size=N/A time=00:15:27.34 bitrate=N/A speed=3.61x    frame=22280 fps= 87 q=-0.0 size=N/A time=00:15:29.26 bitrate=N/A speed=3.61x    frame=22322 fps= 87 q=-0.0 size=N/A time=00:15:31.01 bitrate=N/A speed=3.61x    frame=22368 fps= 87 q=-0.0 size=N/A time=00:15:32.93 bitrate=N/A speed=3.61x    frame=22413 fps= 87 q=-0.0 size=N/A time=00:15:34.80 bitrate=N/A speed=3.61x    frame=22456 fps= 87 q=-0.0 size=N/A time=00:15:36.60 bitrate=N/A speed=3.61x    frame=22502 fps= 87 q=-0.0 size=N/A time=00:15:38.52 bitrate=N/A speed=3.61x    frame=22547 fps= 87 q=-0.0 size=N/A time=00:15:40.39 bitrate=N/A speed=3.61x    frame=22593 fps= 87 q=-0.0 size=N/A time=00:15:42.31 bitrate=N/A speed=3.61x    frame=22638 fps= 87 q=-0.0 size=N/A time=00:15:44.19 bitrate=N/A speed=3.61x    frame=22681 fps= 87 q=-0.0 size=N/A time=00:15:45.98 bitrate=N/A speed=3.61x    frame=22728 fps= 87 q=-0.0 size=N/A time=00:15:47.94 bitrate=N/A speed=3.61x    frame=22772 fps= 87 q=-0.0 size=N/A time=00:15:49.78 bitrate=N/A speed=3.61x    frame=22815 fps= 87 q=-0.0 size=N/A time=00:15:51.57 bitrate=N/A speed=3.61x    frame=22859 fps= 87 q=-0.0 size=N/A time=00:15:53.41 bitrate=N/A speed=3.61x    frame=22904 fps= 87 q=-0.0 size=N/A time=00:15:55.28 bitrate=N/A speed=3.61x    frame=22950 fps= 87 q=-0.0 size=N/A time=00:15:57.20 bitrate=N/A speed=3.61x    frame=22996 fps= 87 q=-0.0 size=N/A time=00:15:59.12 bitrate=N/A speed=3.61x    frame=23038 fps= 87 q=-0.0 size=N/A time=00:16:00.87 bitrate=N/A speed=3.61x    frame=23082 fps= 87 q=-0.0 size=N/A time=00:16:02.71 bitrate=N/A speed=3.61x    frame=23128 fps= 87 q=-0.0 size=N/A time=00:16:04.63 bitrate=N/A speed=3.61x    frame=23174 fps= 87 q=-0.0 size=N/A time=00:16:06.54 bitrate=N/A speed=3.61x    frame=23217 fps= 87 q=-0.0 size=N/A time=00:16:08.34 bitrate=N/A speed=3.61x    frame=23263 fps= 87 q=-0.0 size=N/A time=00:16:10.26 bitrate=N/A speed=3.61x    frame=23307 fps= 87 q=-0.0 size=N/A time=00:16:12.09 bitrate=N/A speed=3.61x    frame=23352 fps= 87 q=-0.0 size=N/A time=00:16:13.97 bitrate=N/A speed=3.61x    frame=23396 fps= 87 q=-0.0 size=N/A time=00:16:15.80 bitrate=N/A speed=3.61x    frame=23439 fps= 87 q=-0.0 size=N/A time=00:16:17.60 bitrate=N/A speed=3.61x    frame=23485 fps= 87 q=-0.0 size=N/A time=00:16:19.52 bitrate=N/A speed=3.61x    frame=23529 fps= 87 q=-0.0 size=N/A time=00:16:21.35 bitrate=N/A speed=3.61x    frame=23574 fps= 87 q=-0.0 size=N/A time=00:16:23.23 bitrate=N/A speed=3.61x    frame=23618 fps= 87 q=-0.0 size=N/A time=00:16:25.06 bitrate=N/A speed=3.61x    frame=23662 fps= 87 q=-0.0 size=N/A time=00:16:26.90 bitrate=N/A speed=3.61x    frame=23705 fps= 87 q=-0.0 size=N/A time=00:16:28.69 bitrate=N/A speed=3.61x    frame=23751 fps= 87 q=-0.0 size=N/A time=00:16:30.61 bitrate=N/A speed=3.61x    frame=23796 fps= 87 q=-0.0 size=N/A time=00:16:32.49 bitrate=N/A speed=3.61x    frame=23841 fps= 87 q=-0.0 size=N/A time=00:16:34.36 bitrate=N/A speed=3.61x    frame=23885 fps= 87 q=-0.0 size=N/A time=00:16:36.20 bitrate=N/A speed=3.61x    frame=23932 fps= 87 q=-0.0 size=N/A time=00:16:38.16 bitrate=N/A speed=3.61x    frame=23975 fps= 87 q=-0.0 size=N/A time=00:16:39.95 bitrate=N/A speed=3.61x    frame=24021 fps= 87 q=-0.0 size=N/A time=00:16:41.87 bitrate=N/A speed=3.61x    frame=24064 fps= 87 q=-0.0 size=N/A time=00:16:43.66 bitrate=N/A speed=3.61x    frame=24111 fps= 87 q=-0.0 size=N/A time=00:16:45.62 bitrate=N/A speed=3.61x    frame=24156 fps= 87 q=-0.0 size=N/A time=00:16:47.50 bitrate=N/A speed=3.61x    frame=24200 fps= 87 q=-0.0 size=N/A time=00:16:49.34 bitrate=N/A speed=3.61x    frame=24245 fps= 87 q=-0.0 size=N/A time=00:16:51.21 bitrate=N/A speed=3.61x    frame=24289 fps= 87 q=-0.0 size=N/A time=00:16:53.05 bitrate=N/A speed=3.61x    frame=24335 fps= 87 q=-0.0 size=N/A time=00:16:54.97 bitrate=N/A speed=3.61x    frame=24379 fps= 87 q=-0.0 size=N/A time=00:16:56.80 bitrate=N/A speed=3.61x    frame=24423 fps= 87 q=-0.0 size=N/A time=00:16:58.64 bitrate=N/A speed=3.61x    frame=24469 fps= 87 q=-0.0 size=N/A time=00:17:00.56 bitrate=N/A speed=3.61x    frame=24514 fps= 87 q=-0.0 size=N/A time=00:17:02.43 bitrate=N/A speed=3.61x    frame=24561 fps= 87 q=-0.0 size=N/A time=00:17:04.39 bitrate=N/A speed=3.61x    frame=24606 fps= 87 q=-0.0 size=N/A time=00:17:06.27 bitrate=N/A speed=3.61x    frame=24648 fps= 87 q=-0.0 size=N/A time=00:17:08.02 bitrate=N/A speed=3.61x    frame=24693 fps= 87 q=-0.0 size=N/A time=00:17:09.90 bitrate=N/A speed=3.61x    frame=24737 fps= 87 q=-0.0 size=N/A time=00:17:11.73 bitrate=N/A speed=3.61x    frame=24781 fps= 87 q=-0.0 size=N/A time=00:17:13.57 bitrate=N/A speed=3.61x    frame=24826 fps= 87 q=-0.0 size=N/A time=00:17:15.45 bitrate=N/A speed=3.61x    frame=24874 fps= 87 q=-0.0 size=N/A time=00:17:17.45 bitrate=N/A speed=3.61x    frame=24918 fps= 87 q=-0.0 size=N/A time=00:17:19.28 bitrate=N/A speed=3.61x    frame=24962 fps= 87 q=-0.0 size=N/A time=00:17:21.12 bitrate=N/A speed=3.61x    frame=25007 fps= 87 q=-0.0 size=N/A time=00:17:23.00 bitrate=N/A speed=3.61x    frame=25052 fps= 87 q=-0.0 size=N/A time=00:17:24.87 bitrate=N/A speed=3.61x    frame=25098 fps= 87 q=-0.0 size=N/A time=00:17:26.79 bitrate=N/A speed=3.61x    frame=25143 fps= 87 q=-0.0 size=N/A time=00:17:28.67 bitrate=N/A speed=3.61x    frame=25187 fps= 87 q=-0.0 size=N/A time=00:17:30.50 bitrate=N/A speed=3.61x    frame=25231 fps= 87 q=-0.0 size=N/A time=00:17:32.34 bitrate=N/A speed=3.61x    frame=25276 fps= 87 q=-0.0 size=N/A time=00:17:34.21 bitrate=N/A speed=3.61x    frame=25321 fps= 87 q=-0.0 size=N/A time=00:17:36.09 bitrate=N/A speed=3.61x    frame=25366 fps= 87 q=-0.0 size=N/A time=00:17:37.97 bitrate=N/A speed=3.61x    frame=25410 fps= 87 q=-0.0 size=N/A time=00:17:39.80 bitrate=N/A speed=3.61x    frame=25454 fps= 87 q=-0.0 size=N/A time=00:17:41.64 bitrate=N/A speed=3.61x    frame=25500 fps= 87 q=-0.0 size=N/A time=00:17:43.56 bitrate=N/A speed=3.61x    frame=25543 fps= 87 q=-0.0 size=N/A time=00:17:45.35 bitrate=N/A speed=3.61x    frame=25587 fps= 87 q=-0.0 size=N/A time=00:17:47.19 bitrate=N/A speed=3.61x    frame=25633 fps= 87 q=-0.0 size=N/A time=00:17:49.10 bitrate=N/A speed=3.61x    frame=25677 fps= 87 q=-0.0 size=N/A time=00:17:50.94 bitrate=N/A speed=3.61x    frame=25721 fps= 87 q=-0.0 size=N/A time=00:17:52.78 bitrate=N/A speed=3.61x    frame=25767 fps= 87 q=-0.0 size=N/A time=00:17:54.69 bitrate=N/A speed=3.61x    frame=25811 fps= 87 q=-0.0 size=N/A time=00:17:56.53 bitrate=N/A speed=3.61x    frame=25858 fps= 87 q=-0.0 size=N/A time=00:17:58.49 bitrate=N/A speed=3.61x    frame=25902 fps= 87 q=-0.0 size=N/A time=00:18:00.32 bitrate=N/A speed=3.61x    frame=25945 fps= 87 q=-0.0 size=N/A time=00:18:02.12 bitrate=N/A speed=3.61x    frame=25992 fps= 87 q=-0.0 size=N/A time=00:18:04.08 bitrate=N/A speed=3.61x    frame=26036 fps= 87 q=-0.0 size=N/A time=00:18:05.91 bitrate=N/A speed=3.61x    frame=26079 fps= 87 q=-0.0 size=N/A time=00:18:07.71 bitrate=N/A speed=3.61x    frame=26126 fps= 87 q=-0.0 size=N/A time=00:18:09.67 bitrate=N/A speed=3.61x    frame=26171 fps= 87 q=-0.0 size=N/A time=00:18:11.54 bitrate=N/A speed=3.61x    frame=26215 fps= 87 q=-0.0 size=N/A time=00:18:13.38 bitrate=N/A speed=3.61x    frame=26262 fps= 87 q=-0.0 size=N/A time=00:18:15.34 bitrate=N/A speed=3.61x    frame=26304 fps= 87 q=-0.0 size=N/A time=00:18:17.09 bitrate=N/A speed=3.61x    frame=26345 fps= 87 q=-0.0 size=N/A time=00:18:18.80 bitrate=N/A speed=3.61x    frame=26388 fps= 87 q=-0.0 size=N/A time=00:18:20.59 bitrate=N/A speed=3.61x    frame=26431 fps= 87 q=-0.0 size=N/A time=00:18:22.39 bitrate=N/A speed=3.61x    frame=26475 fps= 87 q=-0.0 size=N/A time=00:18:24.22 bitrate=N/A speed=3.61x    frame=26521 fps= 87 q=-0.0 size=N/A time=00:18:26.14 bitrate=N/A speed=3.61x    frame=26565 fps= 87 q=-0.0 size=N/A time=00:18:27.98 bitrate=N/A speed=3.61x    frame=26609 fps= 87 q=-0.0 size=N/A time=00:18:29.81 bitrate=N/A speed=3.61x    frame=26652 fps= 87 q=-0.0 size=N/A time=00:18:31.61 bitrate=N/A speed=3.61x    frame=26695 fps= 87 q=-0.0 size=N/A time=00:18:33.40 bitrate=N/A speed=3.61x    frame=26736 fps= 87 q=-0.0 size=N/A time=00:18:35.11 bitrate=N/A speed=3.61x    frame=26783 fps= 87 q=-0.0 size=N/A time=00:18:37.07 bitrate=N/A speed=3.61x    frame=26827 fps= 87 q=-0.0 size=N/A time=00:18:38.90 bitrate=N/A speed=3.61x    frame=26871 fps= 87 q=-0.0 size=N/A time=00:18:40.74 bitrate=N/A speed=3.61x    frame=26916 fps= 87 q=-0.0 size=N/A time=00:18:42.62 bitrate=N/A speed=3.61x    frame=26960 fps= 87 q=-0.0 size=N/A time=00:18:44.45 bitrate=N/A speed=3.61x    frame=27005 fps= 87 q=-0.0 size=N/A time=00:18:46.33 bitrate=N/A speed=3.61x    frame=27052 fps= 87 q=-0.0 size=N/A time=00:18:48.29 bitrate=N/A speed=3.61x    frame=27094 fps= 87 q=-0.0 size=N/A time=00:18:50.04 bitrate=N/A speed=3.61x    frame=27139 fps= 87 q=-0.0 size=N/A time=00:18:51.92 bitrate=N/A speed=3.61x    frame=27184 fps= 87 q=-0.0 size=N/A time=00:18:53.79 bitrate=N/A speed=3.61x    frame=27228 fps= 87 q=-0.0 size=N/A time=00:18:55.63 bitrate=N/A speed=3.61x    frame=27275 fps= 87 q=-0.0 size=N/A time=00:18:57.59 bitrate=N/A speed=3.61x    frame=27319 fps= 87 q=-0.0 size=N/A time=00:18:59.42 bitrate=N/A speed=3.61x    frame=27363 fps= 87 q=-0.0 size=N/A time=00:19:01.26 bitrate=N/A speed=3.61x    frame=27410 fps= 87 q=-0.0 size=N/A time=00:19:03.22 bitrate=N/A speed=3.61x    frame=27453 fps= 87 q=-0.0 size=N/A time=00:19:05.01 bitrate=N/A speed=3.61x    frame=27499 fps= 87 q=-0.0 size=N/A time=00:19:06.93 bitrate=N/A speed=3.61x    frame=27546 fps= 87 q=-0.0 size=N/A time=00:19:08.89 bitrate=N/A speed=3.61x    frame=27590 fps= 87 q=-0.0 size=N/A time=00:19:10.73 bitrate=N/A speed=3.61x    frame=27636 fps= 87 q=-0.0 size=N/A time=00:19:12.65 bitrate=N/A speed=3.61x    frame=27681 fps= 87 q=-0.0 size=N/A time=00:19:14.52 bitrate=N/A speed=3.61x    frame=27725 fps= 87 q=-0.0 size=N/A time=00:19:16.36 bitrate=N/A speed=3.61x    frame=27769 fps= 87 q=-0.0 size=N/A time=00:19:18.19 bitrate=N/A speed=3.61x    frame=27815 fps= 87 q=-0.0 size=N/A time=00:19:20.11 bitrate=N/A speed=3.61x    frame=27858 fps= 87 q=-0.0 size=N/A time=00:19:21.91 bitrate=N/A speed=3.61x    frame=27902 fps= 87 q=-0.0 size=N/A time=00:19:23.74 bitrate=N/A speed=3.61x    frame=27946 fps= 87 q=-0.0 size=N/A time=00:19:25.58 bitrate=N/A speed=3.61x    frame=27991 fps= 87 q=-0.0 size=N/A time=00:19:27.45 bitrate=N/A speed=3.61x    frame=28037 fps= 87 q=-0.0 size=N/A time=00:19:29.37 bitrate=N/A speed=3.61x    frame=28080 fps= 87 q=-0.0 size=N/A time=00:19:31.17 bitrate=N/A speed=3.61x    frame=28124 fps= 87 q=-0.0 size=N/A time=00:19:33.00 bitrate=N/A speed=3.61x    frame=28170 fps= 87 q=-0.0 size=N/A time=00:19:34.92 bitrate=N/A speed=3.61x    frame=28213 fps= 87 q=-0.0 size=N/A time=00:19:36.71 bitrate=N/A speed=3.61x    frame=28258 fps= 87 q=-0.0 size=N/A time=00:19:38.59 bitrate=N/A speed=3.61x    frame=28302 fps= 87 q=-0.0 size=N/A time=00:19:40.42 bitrate=N/A speed=3.61x    frame=28348 fps= 87 q=-0.0 size=N/A time=00:19:42.34 bitrate=N/A speed=3.61x    frame=28392 fps= 87 q=-0.0 size=N/A time=00:19:44.18 bitrate=N/A speed=3.61x    frame=28438 fps= 87 q=-0.0 size=N/A time=00:19:46.10 bitrate=N/A speed=3.61x    frame=28485 fps= 87 q=-0.0 size=N/A time=00:19:48.06 bitrate=N/A speed=3.61x    frame=28528 fps= 87 q=-0.0 size=N/A time=00:19:49.85 bitrate=N/A speed=3.61x    frame=28575 fps= 87 q=-0.0 size=N/A time=00:19:51.81 bitrate=N/A speed=3.61x    frame=28619 fps= 87 q=-0.0 size=N/A time=00:19:53.65 bitrate=N/A speed=3.61x    frame=28665 fps= 87 q=-0.0 size=N/A time=00:19:55.56 bitrate=N/A speed=3.61x    frame=28713 fps= 87 q=-0.0 size=N/A time=00:19:57.57 bitrate=N/A speed=3.61x    frame=28757 fps= 87 q=-0.0 size=N/A time=00:19:59.40 bitrate=N/A speed=3.61x    frame=28801 fps= 87 q=-0.0 size=N/A time=00:20:01.24 bitrate=N/A speed=3.61x    frame=28847 fps= 87 q=-0.0 size=N/A time=00:20:03.16 bitrate=N/A speed=3.61x    frame=28893 fps= 87 q=-0.0 size=N/A time=00:20:05.07 bitrate=N/A speed=3.61x    frame=28939 fps= 87 q=-0.0 size=N/A time=00:20:06.99 bitrate=N/A speed=3.61x    frame=28983 fps= 87 q=-0.0 size=N/A time=00:20:08.83 bitrate=N/A speed=3.61x    frame=29027 fps= 87 q=-0.0 size=N/A time=00:20:10.66 bitrate=N/A speed=3.61x    frame=29072 fps= 87 q=-0.0 size=N/A time=00:20:12.54 bitrate=N/A speed=3.61x    frame=29119 fps= 87 q=-0.0 size=N/A time=00:20:14.50 bitrate=N/A speed=3.61x    frame=29165 fps= 87 q=-0.0 size=N/A time=00:20:16.42 bitrate=N/A speed=3.61x    frame=29210 fps= 87 q=-0.0 size=N/A time=00:20:18.30 bitrate=N/A speed=3.61x    frame=29255 fps= 87 q=-0.0 size=N/A time=00:20:20.17 bitrate=N/A speed=3.61x    frame=29299 fps= 87 q=-0.0 size=N/A time=00:20:22.01 bitrate=N/A speed=3.61x    frame=29344 fps= 87 q=-0.0 size=N/A time=00:20:23.88 bitrate=N/A speed=3.61x    frame=29390 fps= 87 q=-0.0 size=N/A time=00:20:25.80 bitrate=N/A speed=3.61x    frame=29436 fps= 87 q=-0.0 size=N/A time=00:20:27.72 bitrate=N/A speed=3.61x    frame=29480 fps= 87 q=-0.0 size=N/A time=00:20:29.56 bitrate=N/A speed=3.61x    frame=29523 fps= 87 q=-0.0 size=N/A time=00:20:31.35 bitrate=N/A speed=3.61x    frame=29565 fps= 87 q=-0.0 size=N/A time=00:20:33.10 bitrate=N/A speed=3.61x    frame=29609 fps= 87 q=-0.0 size=N/A time=00:20:34.94 bitrate=N/A speed=3.61x    frame=29653 fps= 87 q=-0.0 size=N/A time=00:20:36.77 bitrate=N/A speed=3.61x    frame=29696 fps= 87 q=-0.0 size=N/A time=00:20:38.57 bitrate=N/A speed=3.61x    frame=29742 fps= 87 q=-0.0 size=N/A time=00:20:40.48 bitrate=N/A speed=3.61x    frame=29786 fps= 87 q=-0.0 size=N/A time=00:20:42.32 bitrate=N/A speed=3.61x    frame=29828 fps= 87 q=-0.0 size=N/A time=00:20:44.07 bitrate=N/A speed=3.61x    frame=29874 fps= 87 q=-0.0 size=N/A time=00:20:45.99 bitrate=N/A speed=3.61x    frame=29916 fps= 87 q=-0.0 size=N/A time=00:20:47.74 bitrate=N/A speed=3.61x    frame=29959 fps= 87 q=-0.0 size=N/A time=00:20:49.53 bitrate=N/A speed=3.61x    frame=30003 fps= 87 q=-0.0 size=N/A time=00:20:51.37 bitrate=N/A speed=3.61x    frame=30047 fps= 87 q=-0.0 size=N/A time=00:20:53.21 bitrate=N/A speed=3.61x    frame=30090 fps= 87 q=-0.0 size=N/A time=00:20:55.00 bitrate=N/A speed=3.61x    frame=30133 fps= 87 q=-0.0 size=N/A time=00:20:56.79 bitrate=N/A speed=3.61x    frame=30173 fps= 87 q=-0.0 size=N/A time=00:20:58.46 bitrate=N/A speed=3.61x    frame=30216 fps= 87 q=-0.0 size=N/A time=00:21:00.25 bitrate=N/A speed=3.61x    frame=30259 fps= 87 q=-0.0 size=N/A time=00:21:02.05 bitrate=N/A speed=3.61x    frame=30301 fps= 87 q=-0.0 size=N/A time=00:21:03.80 bitrate=N/A speed=3.61x    frame=30347 fps= 87 q=-0.0 size=N/A time=00:21:05.72 bitrate=N/A speed=3.61x    frame=30392 fps= 87 q=-0.0 size=N/A time=00:21:07.59 bitrate=N/A speed=3.61x    frame=30435 fps= 87 q=-0.0 size=N/A time=00:21:09.39 bitrate=N/A speed=3.61x    frame=30478 fps= 87 q=-0.0 size=N/A time=00:21:11.18 bitrate=N/A speed=3.61x    frame=30519 fps= 86 q=-0.0 size=N/A time=00:21:12.89 bitrate=N/A speed=3.61x    frame=30564 fps= 86 q=-0.0 size=N/A time=00:21:14.77 bitrate=N/A speed=3.61x    frame=30606 fps= 86 q=-0.0 size=N/A time=00:21:16.52 bitrate=N/A speed=3.61x    frame=30650 fps= 86 q=-0.0 size=N/A time=00:21:18.36 bitrate=N/A speed=3.61x    frame=30691 fps= 86 q=-0.0 size=N/A time=00:21:20.07 bitrate=N/A speed=3.61x    frame=30731 fps= 86 q=-0.0 size=N/A time=00:21:21.73 bitrate=N/A speed=3.61x    frame=30774 fps= 86 q=-0.0 size=N/A time=00:21:23.53 bitrate=N/A speed=3.61x    frame=30817 fps= 86 q=-0.0 size=N/A time=00:21:25.32 bitrate=N/A speed=3.61x    frame=30860 fps= 86 q=-0.0 size=N/A time=00:21:27.11 bitrate=N/A speed=3.61x    frame=30905 fps= 86 q=-0.0 size=N/A time=00:21:28.99 bitrate=N/A speed=3.61x    frame=30948 fps= 86 q=-0.0 size=N/A time=00:21:30.78 bitrate=N/A speed=3.61x    frame=30994 fps= 86 q=-0.0 size=N/A time=00:21:32.70 bitrate=N/A speed=3.61x    frame=31037 fps= 86 q=-0.0 size=N/A time=00:21:34.50 bitrate=N/A speed=3.61x    frame=31081 fps= 86 q=-0.0 size=N/A time=00:21:36.33 bitrate=N/A speed=3.61x    frame=31128 fps= 86 q=-0.0 size=N/A time=00:21:38.29 bitrate=N/A speed=3.61x    frame=31172 fps= 86 q=-0.0 size=N/A time=00:21:40.13 bitrate=N/A speed=3.61x    frame=31217 fps= 86 q=-0.0 size=N/A time=00:21:42.00 bitrate=N/A speed=3.61x    frame=31262 fps= 86 q=-0.0 size=N/A time=00:21:43.88 bitrate=N/A speed=3.61x    frame=31306 fps= 86 q=-0.0 size=N/A time=00:21:45.72 bitrate=N/A speed=3.61x    frame=31350 fps= 86 q=-0.0 size=N/A time=00:21:47.55 bitrate=N/A speed=3.61x    frame=31398 fps= 86 q=-0.0 size=N/A time=00:21:49.55 bitrate=N/A speed=3.61x    frame=31441 fps= 86 q=-0.0 size=N/A time=00:21:51.35 bitrate=N/A speed=3.61x    frame=31486 fps= 86 q=-0.0 size=N/A time=00:21:53.22 bitrate=N/A speed=3.61x    frame=31527 fps= 86 q=-0.0 size=N/A time=00:21:54.93 bitrate=N/A speed=3.61x    frame=31573 fps= 86 q=-0.0 size=N/A time=00:21:56.85 bitrate=N/A speed=3.61x    frame=31617 fps= 86 q=-0.0 size=N/A time=00:21:58.69 bitrate=N/A speed=3.61x    frame=31664 fps= 86 q=-0.0 size=N/A time=00:22:00.65 bitrate=N/A speed=3.61x    frame=31708 fps= 86 q=-0.0 size=N/A time=00:22:02.48 bitrate=N/A speed=3.61x    frame=31753 fps= 86 q=-0.0 size=N/A time=00:22:04.36 bitrate=N/A speed=3.61x    frame=31799 fps= 86 q=-0.0 size=N/A time=00:22:06.28 bitrate=N/A speed=3.61x    frame=31845 fps= 86 q=-0.0 size=N/A time=00:22:08.20 bitrate=N/A speed=3.61x    frame=31890 fps= 86 q=-0.0 size=N/A time=00:22:10.07 bitrate=N/A speed=3.61x    frame=31936 fps= 86 q=-0.0 size=N/A time=00:22:11.99 bitrate=N/A speed=3.61x    frame=31979 fps= 86 q=-0.0 size=N/A time=00:22:13.79 bitrate=N/A speed=3.61x    frame=32025 fps= 86 q=-0.0 size=N/A time=00:22:15.70 bitrate=N/A speed=3.61x    frame=32072 fps= 86 q=-0.0 size=N/A time=00:22:17.66 bitrate=N/A speed=3.61x    frame=32117 fps= 86 q=-0.0 size=N/A time=00:22:19.54 bitrate=N/A speed=3.61x    frame=32163 fps= 86 q=-0.0 size=N/A time=00:22:21.46 bitrate=N/A speed=3.61x    frame=32206 fps= 86 q=-0.0 size=N/A time=00:22:23.25 bitrate=N/A speed=3.61x    frame=32254 fps= 86 q=-0.0 size=N/A time=00:22:25.30 bitrate=N/A speed=3.61x    frame=32300 fps= 86 q=-0.0 size=N/A time=00:22:27.17 bitrate=N/A speed=3.61x    frame=32344 fps= 86 q=-0.0 size=N/A time=00:22:29.01 bitrate=N/A speed=3.61x    frame=32391 fps= 86 q=-0.0 size=N/A time=00:22:30.97 bitrate=N/A speed=3.61x    frame=32435 fps= 86 q=-0.0 size=N/A time=00:22:32.80 bitrate=N/A speed=3.61x    frame=32479 fps= 86 q=-0.0 size=N/A time=00:22:34.64 bitrate=N/A speed=3.61x    frame=32527 fps= 86 q=-0.0 size=N/A time=00:22:36.64 bitrate=N/A speed=3.61x    frame=32572 fps= 86 q=-0.0 size=N/A time=00:22:38.52 bitrate=N/A speed=3.61x    frame=32617 fps= 86 q=-0.0 size=N/A time=00:22:40.40 bitrate=N/A speed=3.61x    frame=32664 fps= 87 q=-0.0 size=N/A time=00:22:42.36 bitrate=N/A speed=3.61x    frame=32709 fps= 87 q=-0.0 size=N/A time=00:22:44.23 bitrate=N/A speed=3.61x    frame=32755 fps= 87 q=-0.0 size=N/A time=00:22:46.15 bitrate=N/A speed=3.61x    frame=32801 fps= 87 q=-0.0 size=N/A time=00:22:48.07 bitrate=N/A speed=3.61x    frame=32846 fps= 87 q=-0.0 size=N/A time=00:22:49.95 bitrate=N/A speed=3.61x    frame=32891 fps= 87 q=-0.0 size=N/A time=00:22:51.82 bitrate=N/A speed=3.61x    frame=32935 fps= 87 q=-0.0 size=N/A time=00:22:53.66 bitrate=N/A speed=3.61x    frame=32982 fps= 87 q=-0.0 size=N/A time=00:22:55.62 bitrate=N/A speed=3.61x    frame=33025 fps= 87 q=-0.0 size=N/A time=00:22:57.41 bitrate=N/A speed=3.61x    frame=33071 fps= 87 q=-0.0 size=N/A time=00:22:59.33 bitrate=N/A speed=3.61x    frame=33117 fps= 87 q=-0.0 size=N/A time=00:23:01.25 bitrate=N/A speed=3.61x    frame=33160 fps= 87 q=-0.0 size=N/A time=00:23:03.04 bitrate=N/A speed=3.61x    frame=33203 fps= 87 q=-0.0 size=N/A time=00:23:04.84 bitrate=N/A speed=3.61x    frame=33250 fps= 87 q=-0.0 size=N/A time=00:23:06.80 bitrate=N/A speed=3.61x    frame=33295 fps= 87 q=-0.0 size=N/A time=00:23:08.67 bitrate=N/A speed=3.61x    frame=33340 fps= 87 q=-0.0 size=N/A time=00:23:10.55 bitrate=N/A speed=3.61x    frame=33385 fps= 87 q=-0.0 size=N/A time=00:23:12.43 bitrate=N/A speed=3.61x    frame=33431 fps= 87 q=-0.0 size=N/A time=00:23:14.35 bitrate=N/A speed=3.61x    frame=33474 fps= 87 q=-0.0 size=N/A time=00:23:16.14 bitrate=N/A speed=3.61x    frame=33520 fps= 87 q=-0.0 size=N/A time=00:23:18.06 bitrate=N/A speed=3.61x    frame=33568 fps= 87 q=-0.0 size=N/A time=00:23:20.06 bitrate=N/A speed=3.61x    frame=33612 fps= 87 q=-0.0 size=N/A time=00:23:21.90 bitrate=N/A speed=3.61x    frame=33657 fps= 87 q=-0.0 size=N/A time=00:23:23.77 bitrate=N/A speed=3.61x    frame=33705 fps= 87 q=-0.0 size=N/A time=00:23:25.77 bitrate=N/A speed=3.61x    frame=33752 fps= 87 q=-0.0 size=N/A time=00:23:27.73 bitrate=N/A speed=3.61x    frame=33798 fps= 87 q=-0.0 size=N/A time=00:23:29.65 bitrate=N/A speed=3.61x    frame=33842 fps= 87 q=-0.0 size=N/A time=00:23:31.49 bitrate=N/A speed=3.61x    frame=33887 fps= 87 q=-0.0 size=N/A time=00:23:33.37 bitrate=N/A speed=3.61x    frame=33933 fps= 87 q=-0.0 size=N/A time=00:23:35.28 bitrate=N/A speed=3.61x    frame=33978 fps= 87 q=-0.0 size=N/A time=00:23:37.16 bitrate=N/A speed=3.61x    frame=34023 fps= 87 q=-0.0 size=N/A time=00:23:39.04 bitrate=N/A speed=3.61x    frame=34070 fps= 87 q=-0.0 size=N/A time=00:23:41.00 bitrate=N/A speed=3.61x    frame=34116 fps= 87 q=-0.0 size=N/A time=00:23:42.92 bitrate=N/A speed=3.61x    frame=34159 fps= 87 q=-0.0 size=N/A time=00:23:44.71 bitrate=N/A speed=3.61x    frame=34205 fps= 87 q=-0.0 size=N/A time=00:23:46.63 bitrate=N/A speed=3.61x    frame=34250 fps= 87 q=-0.0 size=N/A time=00:23:48.51 bitrate=N/A speed=3.61x    frame=34295 fps= 87 q=-0.0 size=N/A time=00:23:50.38 bitrate=N/A speed=3.61x    frame=34340 fps= 87 q=-0.0 size=N/A time=00:23:52.26 bitrate=N/A speed=3.61x    frame=34384 fps= 87 q=-0.0 size=N/A time=00:23:54.09 bitrate=N/A speed=3.61x    frame=34431 fps= 87 q=-0.0 size=N/A time=00:23:56.05 bitrate=N/A speed=3.61x    frame=34474 fps= 87 q=-0.0 size=N/A time=00:23:57.85 bitrate=N/A speed=3.61x    frame=34518 fps= 87 q=-0.0 size=N/A time=00:23:59.68 bitrate=N/A speed=3.61x    frame=34565 fps= 87 q=-0.0 size=N/A time=00:24:01.64 bitrate=N/A speed=3.61x    frame=34611 fps= 87 q=-0.0 size=N/A time=00:24:03.56 bitrate=N/A speed=3.61x    frame=34656 fps= 87 q=-0.0 size=N/A time=00:24:05.44 bitrate=N/A speed=3.61x    frame=34701 fps= 87 q=-0.0 size=N/A time=00:24:07.32 bitrate=N/A speed=3.61x    frame=34747 fps= 87 q=-0.0 size=N/A time=00:24:09.23 bitrate=N/A speed=3.61x    frame=34790 fps= 87 q=-0.0 size=N/A time=00:24:11.03 bitrate=N/A speed=3.61x    frame=34837 fps= 87 q=-0.0 size=N/A time=00:24:12.99 bitrate=N/A speed=3.61x    frame=34882 fps= 87 q=-0.0 size=N/A time=00:24:14.87 bitrate=N/A speed=3.61x    [Parsed_libvmaf_10 @ 0000016c8d361940] VMAF score: 95.474473
[out#0/null @ 0000016cfef20000] video:15005KiB audio:273132KiB subtitle:0KiB other streams:0KiB global headers:0KiB muxing overhead: unknown
frame=34921 fps= 86 q=-0.0 Lsize=N/A time=00:24:16.49 bitrate=N/A speed= 3.6x    
